<?xml version="1.0" encoding="iso-8859-1"?>
<!-- Generator: Adobe Illustrator 26.0.1, SVG Export Plug-In . SVG Version: 6.00 Build 0)  -->
<svg version="1.1" id="Layer_1" xmlns="http://www.w3.org/2000/svg" xmlns:xlink="http://www.w3.org/1999/xlink" x="0px" y="0px"
	 viewBox="0 0 1000 1000" style="enable-background:new 0 0 1000 1000;" xml:space="preserve">
<rect style="display:none;" width="1000" height="1000"/>
<g id="watermark_1_">
	<g>
		<g id="watermark" style="opacity:0.61;">
			<g>
				<g>
					<g>
						<g>
							<polygon style="fill:#606060;" points="421.112,924.528 409.007,952.493 402.615,952.493 390.55,924.528 397.541,924.528 
								406.051,944.503 414.68,924.528 							"/>
						</g>
						<g>
							<path style="fill:#606060;" d="M442.44,941.51c0-6.91-4.87-11.15-11.18-11.15c-6.56,0-11.47,4.64-11.47,11.07
								c0,6.39,4.84,11.06,12.27,11.06c3.87,0,6.87-1.19,8.86-3.47l-3.31-3.6c-1.48,1.4-3.12,2.08-5.39,2.08
								c-3.28,0-5.56-1.64-6.16-4.32h16.26C442.36,942.67,442.44,941.99,442.44,941.51z M425.98,939.55
								c0.44-2.76,2.48-4.47,5.32-4.47c2.79,0,4.83,1.75,5.27,4.47H425.98z"/>
						</g>
						<g>
							<path style="fill:#606060;" d="M444.997,941.427c0-6.471,4.994-11.066,11.985-11.066c4.514,0,8.07,1.958,9.628,5.473
								l-4.834,2.597c-1.159-2.038-2.877-2.956-4.834-2.956c-3.156,0-5.633,2.198-5.633,5.952c0,3.756,2.477,5.953,5.633,5.953
								c1.958,0,3.675-0.879,4.834-2.956l4.834,2.637c-1.558,3.436-5.114,5.433-9.628,5.433
								C449.991,952.493,444.997,947.899,444.997,941.427L444.997,941.427z"/>
						</g>
						<g>
							<path style="fill:#606060;" d="M484.386,951.135c-1.279,0.919-3.157,1.358-5.074,1.358c-5.073,0-8.03-2.597-8.03-7.711
								v-8.829h-3.316v-4.794h3.316v-5.233h6.232v5.233h5.353v4.794h-5.353v8.749c0,1.837,0.998,2.836,2.677,2.836
								c0.918,0,1.837-0.279,2.517-0.799L484.386,951.135z"/>
						</g>
					</g>
					<g>
						<path style="fill:#606060;" d="M527.157,930.68v5.753c-0.519-0.04-0.918-0.08-1.398-0.08c-3.435,0-5.713,1.877-5.713,5.993
							v10.147h-6.232V931h5.953v2.836C521.284,931.759,523.841,930.68,527.157,930.68L527.157,930.68z"/>
					</g>
					<g>
						<path style="fill:#606060;" d="M528.954,949.257l2.197-4.874c2.357,1.718,5.873,2.916,9.229,2.916
							c3.836,0,5.393-1.278,5.393-2.996c0-5.233-16.26-1.638-16.26-12.025c0-4.754,3.835-8.709,11.785-8.709
							c3.516,0,7.112,0.839,9.708,2.477l-1.998,4.914c-2.597-1.478-5.273-2.197-7.75-2.197c-3.835,0-5.313,1.438-5.313,3.196
							c0,5.154,16.259,1.598,16.259,11.865c0,4.675-3.875,8.67-11.865,8.67C535.905,952.493,531.43,951.175,528.954,949.257
							L528.954,949.257z"/>
					</g>
					<g>
						<path style="fill:#606060;" d="M577.25,941.51c0-6.91-4.87-11.15-11.19-11.15c-6.55,0-11.46,4.64-11.46,11.07
							c0,6.39,4.83,11.06,12.26,11.06c3.88,0,6.87-1.19,8.87-3.47l-3.31-3.6c-1.48,1.4-3.12,2.08-5.4,2.08
							c-3.27,0-5.55-1.64-6.15-4.32h16.26C577.17,942.67,577.25,941.99,577.25,941.51z M560.79,939.55
							c0.44-2.76,2.48-4.47,5.31-4.47c2.8,0,4.84,1.75,5.28,4.47H560.79z"/>
					</g>
					<g>
						<path style="fill:#606060;" d="M602.46,941.51c0-6.91-4.88-11.15-11.19-11.15c-6.55,0-11.47,4.64-11.47,11.07
							c0,6.39,4.84,11.06,12.27,11.06c3.88,0,6.87-1.19,8.87-3.47l-3.32-3.6c-1.48,1.4-3.11,2.08-5.39,2.08
							c-3.28,0-5.55-1.64-6.15-4.32h16.26C602.38,942.67,602.46,941.99,602.46,941.51z M586,939.55c0.44-2.76,2.47-4.47,5.31-4.47
							c2.8,0,4.83,1.75,5.27,4.47H586z"/>
					</g>
					<g>
						<polygon style="fill:#606060;" points="615.838,944.064 612.841,947.02 612.841,952.493 606.61,952.493 606.61,922.85 
							612.841,922.85 612.841,939.629 621.95,931 629.381,931 620.432,940.108 630.18,952.493 622.63,952.493 						"/>
					</g>
					<g>
						<path style="fill:#606060;" d="M514.371,955.416L514.371,955.416l-6.226-6.226c-0.947,1.107-2.075,2.054-3.339,2.796
							c-0.201,0.15-0.406,0.296-0.616,0.433l6.589,6.589c0.992,0.992,2.601,0.992,3.592,0
							C515.363,958.017,515.363,956.408,514.371,955.416L514.371,955.416z"/>
					</g>
					<g>
						<path style="fill:#F84D10;" d="M499.97,929.04c0.48-0.38,1.07-0.61,1.73-0.61c0.09,0,0.18,0,0.27,0.01
							c-0.47-0.34-1.04-0.54-1.66-0.54c-0.86,0-1.62,0.39-2.14,1c-0.11,0-0.22,0.01-0.33,0.01c0.09-0.16,0.14-0.35,0.14-0.55
							c0-0.51-0.31-0.95-0.75-1.13c0.19,0.27,0.3,0.61,0.3,0.97c0,0.26-0.07,0.51-0.17,0.74c-6.12,0.43-10.95,5.52-10.95,11.75
							c0,6.52,5.28,11.8,11.79,11.8c6.52,0,11.8-5.28,11.8-11.8C510,934.78,505.64,929.89,499.97,929.04z M495.61,932.11
							c0.95,0,1.84,0.25,2.61,0.68c0.81-0.53,1.79-0.84,2.83-0.84c1.55,0,2.93,0.68,3.88,1.75c-0.95-0.82-2.18-1.33-3.54-1.33
							c-0.98,0-1.89,0.26-2.69,0.72c-0.17,0.1-0.34,0.21-0.5,0.33c-0.14-0.11-0.29-0.21-0.44-0.3c-0.8-0.47-1.74-0.75-2.74-0.75
							c-0.65,0-1.28,0.12-1.86,0.33C493.89,932.33,494.73,932.11,495.61,932.11z M503.86,941.78c0.25,0.67,0.39,1.38,0.39,2.14
							c0,3.34-2.71,6.04-6.05,6.04c-3.33,0-6.04-2.7-6.04-6.04c0-0.76,0.14-1.47,0.39-2.14c-1.35-0.83-2.25-2.31-2.25-4.01
							c0-2.61,2.11-4.72,4.72-4.72c1.23,0,2.34,0.47,3.18,1.24c0.84-0.77,1.96-1.24,3.19-1.24c2.61,0,4.72,2.11,4.72,4.72
							C506.11,939.47,505.21,940.95,503.86,941.78z"/>
					</g>
					<g>
						<path style="fill:#444444;" d="M503.627,937.351c0,1.082-0.879,1.961-1.961,1.961c-1.082,0-1.961-0.879-1.961-1.961
							s0.879-1.961,1.961-1.961c0.22,0,0.428,0.037,0.625,0.102c-0.065,0.135-0.099,0.287-0.099,0.445
							c0,0.595,0.482,1.076,1.077,1.076c0.11,0,0.217-0.017,0.318-0.048C503.613,937.089,503.627,937.218,503.627,937.351
							L503.627,937.351z"/>
					</g>
					<g>
						<path style="fill:#444444;" d="M496.201,937.351c0,0.818-0.665,1.482-1.483,1.482c-0.818,0-1.483-0.664-1.483-1.482
							s0.665-1.483,1.483-1.483c0.166,0,0.324,0.027,0.473,0.077c-0.049,0.102-0.075,0.217-0.075,0.337
							c0,0.449,0.364,0.814,0.814,0.814c0.083,0,0.164-0.013,0.241-0.036C496.191,937.153,496.201,937.251,496.201,937.351
							L496.201,937.351z"/>
					</g>
					<g>
						<g>
							<g>
								<rect x="484.56" y="939.024" style="fill:#606060;" width="1.34" height="1.34"/>
							</g>
							<g>
								<rect x="510.51" y="939.024" style="fill:#606060;" width="1.34" height="1.34"/>
							</g>
							<g>
								<path style="fill:#606060;" d="M511.332,939.572h-0.304c0-7.07-5.752-12.823-12.823-12.823
									c-7.07,0-12.823,5.753-12.823,12.823h-0.305c0-3.506,1.365-6.803,3.845-9.282c2.479-2.48,5.776-3.845,9.282-3.845
									c3.507,0,6.803,1.365,9.283,3.845C509.966,932.769,511.332,936.065,511.332,939.572L511.332,939.572z"/>
							</g>
						</g>
						<g>
							<rect x="497.534" y="925.927" style="fill:#606060;" width="1.34" height="1.34"/>
						</g>
						<g>
							<rect x="489.006" y="926.445" style="fill:#606060;" width="18.397" height="0.304"/>
						</g>
						<g>
							<path style="fill:#606060;" d="M489.494,926.658c0,0.235-0.191,0.427-0.427,0.427c-0.235,0-0.426-0.191-0.426-0.427
								s0.191-0.427,0.426-0.427C489.303,926.231,489.494,926.422,489.494,926.658L489.494,926.658z"/>
						</g>
						<g>
							<path style="fill:#606060;" d="M507.829,926.658c0,0.235-0.191,0.427-0.427,0.427c-0.235,0-0.426-0.191-0.426-0.427
								s0.191-0.427,0.426-0.427C507.639,926.231,507.829,926.422,507.829,926.658L507.829,926.658z"/>
						</g>
					</g>
				</g>
				<g>
					<path style="fill:#606060;" d="M634.96,951.17c0,3.4,5.15,3.4,5.15,0C640.11,947.78,634.96,947.78,634.96,951.17z"/>
				</g>
				<g>
					<g>
						<g>
							<path style="fill:#606060;" d="M315.75,936.24l-4.04,13.25l-3.86-13.25h-3.82l-3.83,13.25l-4.03-13.25h-4.86l6.18,17.72h5.07
								l1.82-5.22l1.58-5.89l1.57,5.89l1.82,5.22h5.07l6.15-17.72H315.75z"/>
						</g>
						<g>
							<path style="fill:#606060;" d="M348.34,936.24l-4.03,13.25l-3.86-13.25h-3.82l-3.83,13.25l-4.03-13.25h-4.86l6.18,17.72h5.07
								l1.82-5.22l1.58-5.89l1.57,5.89l1.82,5.22h5.07l6.15-17.72H348.34z"/>
						</g>
						<g>
							<path style="fill:#606060;" d="M380.94,936.24l-4.03,13.25l-3.86-13.25h-3.82l-3.83,13.25l-4.03-13.25h-4.86l6.18,17.72h5.07
								l1.82-5.22l1.57-5.89l1.58,5.89l1.82,5.22h5.07l6.15-17.72H380.94z"/>
						</g>
					</g>
					<g>
						<path style="fill:#606060;" d="M387.98,951.41c0,3.4,5.14,3.4,5.14,0C393.12,948.02,387.98,948.02,387.98,951.41z"/>
					</g>
					<g>
						<path style="fill:#606060;" d="M655.37,948.31c-1.07,1.07-2.47,1.47-3.86,1.47c-2.71,0-5-1.79-5-5.15
							c0-3.07,2.14-5.21,5.07-5.21c1.22,0,2.5,0.46,3.54,1.39l2.75-2.89c-1.93-1.9-3.86-2.61-6.36-2.61c-5.11,0-9.36,3.07-9.36,9.32
							c0,6.26,4.25,9.33,9.36,9.33c2.61,0,4.75-0.79,6.79-2.79L655.37,948.31z"/>
					</g>
					<g>
						<path style="fill:#606060;" d="M668.88,935.6c-5.61,0-9.11,4.14-9.11,9.18c0,5.07,3.43,9.18,9.15,9.18
							c5.71,0,9.18-4.11,9.18-9.18C678.1,939.74,674.49,935.6,668.88,935.6z M668.92,949.96c-3.18,0-4.79-2.5-4.79-5.18
							c0-2.65,1.64-5.22,4.79-5.22c2.93,0,4.78,2.57,4.78,5.22C673.7,947.46,672.1,949.96,668.92,949.96z"/>
					</g>
					<g>
						<path style="fill:#606060;" d="M701.22,936.09c-2.28,0-4.32,0.72-5.89,3.22c-1-2.43-3.11-3.29-5.22-3.29
							c-1.68,0-3.71,0.65-4.64,2.43l-0.32-2.14h-4.04v17.65h4.36v-9.43c0-2.33,1.39-4.43,3.75-4.43c2.39,0,3.61,2.1,3.61,4.43v9.43
							h4.36v-9.43c0-2.33,1.46-4.36,3.82-4.36s3.32,1.96,3.32,4.28v9.51h4.36v-9.51C708.69,939.17,706.22,936.09,701.22,936.09z"/>
					</g>
				</g>
			</g>
		</g>
		<g style="opacity:0.61;">
			<g>
				<g>
					<path style="fill:#606060;" d="M708.97,859.49c-0.01-2.66-2.08-4.61-4.76-4.66c-2.01-0.03-1.81,0.26-1.82-1.88
						c0-2.39-0.01-4.78,0.01-7.17c0-0.82-0.25-1.5-0.79-2.12c-5.1-5.81-10.18-11.64-15.28-17.45c-0.26-0.29-0.6-0.53-0.9-0.79
						h-40.59c-1.72,0.64-2.48,1.89-2.47,3.72c0.02,8.16,0.01,16.32,0.01,24.48c0,1.21-0.01,1.28-1.2,1.2
						c-3.26-0.22-5.48,2.14-5.44,5.42c0.1,7.57,0.03,15.14,0.03,22.71c0.01,3.44,1.89,5.32,5.34,5.33c1.26,0,1.27,0,1.27,1.31
						c0,4.83-0.01,9.66,0,14.49c0,2.59,1.26,3.85,3.85,3.85c17.44,0.01,34.89,0.01,52.33,0c2.55,0,3.83-1.26,3.83-3.8V889.4
						c0-1.11,0.01-1.11,1.13-1.12c0.59-0.01,1.18,0.02,1.76-0.13c2.17-0.53,3.68-2.27,3.69-4.5
						C709.01,875.6,709.01,867.54,708.97,859.49z M698.93,902.42c0,1.21-0.01,1.22-1.2,1.22c-8.46,0.01-16.91,0.01-25.36,0.01
						h-25.29c-1.24,0-1.24-0.01-1.24-1.27c-0.01-4.34-0.01-8.69,0-13.04c0-1.01,0.05-1.06,1.04-1.06h50.96
						c1.04,0,1.09,0.04,1.09,1.09V902.42z M655.81,865.77v-3.07h12.11v3.26l-8.62,10.86h8.71v3.07h-12.58v-3.26l8.72-10.86H655.81z
						 M670.7,879.89V862.7h3.24v17.19H670.7z M677.4,879.89V862.7h6.05c0.82,0,1.58,0.13,2.3,0.39c0.71,0.27,1.33,0.64,1.86,1.12
						c0.52,0.48,0.94,1.05,1.25,1.72c0.3,0.66,0.45,1.4,0.45,2.2c0,0.81-0.15,1.55-0.45,2.22c-0.31,0.66-0.73,1.23-1.25,1.71
						c-0.53,0.48-1.15,0.86-1.86,1.12c-0.72,0.26-1.48,0.4-2.3,0.4h-2.81v6.31H677.4z M698.93,853.74c0,1.04-0.05,1.09-1.1,1.09
						h-50.79c-1.2,0-1.2,0-1.2-1.22c-0.01-7.89-0.01-15.78,0-23.67c0-1.22,0-1.22,1.19-1.22c7.17-0.01,14.35-0.01,21.52-0.01h3.82
						c3.17,0.01,6.35,0.01,9.52,0.01c1.19,0,1.21,0.01,1.21,1.22v14.65c0,1.76,0.54,2.3,2.31,2.3c4.16,0.01,8.31,0,12.47,0.01
						c1,0,1.05,0.04,1.05,1.05C698.94,849.88,698.93,851.81,698.93,853.74z M685.42,869.78c0.43-0.48,0.65-1.03,0.65-1.65
						c0-0.31-0.05-0.6-0.16-0.89c-0.1-0.29-0.26-0.54-0.48-0.76c-0.21-0.22-0.48-0.39-0.8-0.52c-0.32-0.12-0.7-0.19-1.13-0.19h-2.86
						v4.73h2.86C684.35,870.5,684.99,870.26,685.42,869.78z"/>
				</g>
				<g>
					<g>
						<rect x="668.546" y="828.478" style="fill:#606060;" width="3.825" height="2.295"/>
					</g>
					<g>
						<rect x="664.722" y="830.773" style="fill:#606060;" width="3.825" height="2.295"/>
					</g>
					<g>
						<rect x="668.546" y="833.068" style="fill:#606060;" width="3.825" height="2.295"/>
					</g>
					<g>
						<rect x="664.722" y="835.363" style="fill:#606060;" width="3.825" height="2.295"/>
					</g>
					<g>
						<rect x="668.546" y="837.658" style="fill:#606060;" width="3.825" height="2.295"/>
					</g>
					<g>
						<rect x="664.722" y="839.953" style="fill:#606060;" width="3.825" height="2.295"/>
					</g>
					<g>
						<rect x="668.546" y="842.247" style="fill:#606060;" width="3.825" height="2.295"/>
					</g>
					<g>
						<rect x="664.722" y="844.542" style="fill:#606060;" width="3.825" height="2.295"/>
					</g>
					<g>
						<rect x="668.546" y="846.837" style="fill:#606060;" width="3.825" height="2.295"/>
					</g>
					<g>
						<rect x="664.722" y="849.132" style="fill:#606060;" width="3.825" height="2.295"/>
					</g>
					<g>
						<rect x="668.546" y="851.427" style="fill:#606060;" width="3.825" height="2.295"/>
					</g>
					<g>
						<rect x="664.722" y="853.722" style="fill:#606060;" width="3.825" height="2.295"/>
					</g>
				</g>
			</g>
			<g>
				<path style="fill:#606060;" d="M312.09,867.24c-0.1-0.29-0.26-0.54-0.48-0.76c-0.21-0.22-0.48-0.39-0.8-0.52
					c-0.32-0.12-0.7-0.19-1.13-0.19h-2.86v4.73h2.86c0.85,0,1.49-0.24,1.92-0.72c0.43-0.48,0.65-1.03,0.65-1.65
					C312.25,867.82,312.2,867.53,312.09,867.24z M312.09,867.24c-0.1-0.29-0.26-0.54-0.48-0.76c-0.21-0.22-0.48-0.39-0.8-0.52
					c-0.32-0.12-0.7-0.19-1.13-0.19h-2.86v4.73h2.86c0.85,0,1.49-0.24,1.92-0.72c0.43-0.48,0.65-1.03,0.65-1.65
					C312.25,867.82,312.2,867.53,312.09,867.24z M312.09,867.24c-0.1-0.29-0.26-0.54-0.48-0.76c-0.21-0.22-0.48-0.39-0.8-0.52
					c-0.32-0.12-0.7-0.19-1.13-0.19h-2.86v4.73h2.86c0.85,0,1.49-0.24,1.92-0.72c0.43-0.48,0.65-1.03,0.65-1.65
					C312.25,867.82,312.2,867.53,312.09,867.24z M312.09,867.24c-0.1-0.29-0.26-0.54-0.48-0.76c-0.21-0.22-0.48-0.39-0.8-0.52
					c-0.32-0.12-0.7-0.19-1.13-0.19h-2.86v4.73h2.86c0.85,0,1.49-0.24,1.92-0.72c0.43-0.48,0.65-1.03,0.65-1.65
					C312.25,867.82,312.2,867.53,312.09,867.24z M312.09,867.24c-0.1-0.29-0.26-0.54-0.48-0.76c-0.21-0.22-0.48-0.39-0.8-0.52
					c-0.32-0.12-0.7-0.19-1.13-0.19h-2.86v4.73h2.86c0.85,0,1.49-0.24,1.92-0.72c0.43-0.48,0.65-1.03,0.65-1.65
					C312.25,867.82,312.2,867.53,312.09,867.24z M312.09,867.24c-0.1-0.29-0.26-0.54-0.48-0.76c-0.21-0.22-0.48-0.39-0.8-0.52
					c-0.32-0.12-0.7-0.19-1.13-0.19h-2.86v4.73h2.86c0.85,0,1.49-0.24,1.92-0.72c0.43-0.48,0.65-1.03,0.65-1.65
					C312.25,867.82,312.2,867.53,312.09,867.24z M312.09,867.24c-0.1-0.29-0.26-0.54-0.48-0.76c-0.21-0.22-0.48-0.39-0.8-0.52
					c-0.32-0.12-0.7-0.19-1.13-0.19h-2.86v4.73h2.86c0.85,0,1.49-0.24,1.92-0.72c0.43-0.48,0.65-1.03,0.65-1.65
					C312.25,867.82,312.2,867.53,312.09,867.24z M312.09,867.24c-0.1-0.29-0.26-0.54-0.48-0.76c-0.21-0.22-0.48-0.39-0.8-0.52
					c-0.32-0.12-0.7-0.19-1.13-0.19h-2.86v4.73h2.86c0.85,0,1.49-0.24,1.92-0.72c0.43-0.48,0.65-1.03,0.65-1.65
					C312.25,867.82,312.2,867.53,312.09,867.24z M312.09,867.24c-0.1-0.29-0.26-0.54-0.48-0.76c-0.21-0.22-0.48-0.39-0.8-0.52
					c-0.32-0.12-0.7-0.19-1.13-0.19h-2.86v4.73h2.86c0.85,0,1.49-0.24,1.92-0.72c0.43-0.48,0.65-1.03,0.65-1.65
					C312.25,867.82,312.2,867.53,312.09,867.24z M312.09,867.24c-0.1-0.29-0.26-0.54-0.48-0.76c-0.21-0.22-0.48-0.39-0.8-0.52
					c-0.32-0.12-0.7-0.19-1.13-0.19h-2.86v4.73h2.86c0.85,0,1.49-0.24,1.92-0.72c0.43-0.48,0.65-1.03,0.65-1.65
					C312.25,867.82,312.2,867.53,312.09,867.24z M312.09,867.24c-0.1-0.29-0.26-0.54-0.48-0.76c-0.21-0.22-0.48-0.39-0.8-0.52
					c-0.32-0.12-0.7-0.19-1.13-0.19h-2.86v4.73h2.86c0.85,0,1.49-0.24,1.92-0.72c0.43-0.48,0.65-1.03,0.65-1.65
					C312.25,867.82,312.2,867.53,312.09,867.24z M312.09,867.24c-0.1-0.29-0.26-0.54-0.48-0.76c-0.21-0.22-0.48-0.39-0.8-0.52
					c-0.32-0.12-0.7-0.19-1.13-0.19h-2.86v4.73h2.86c0.85,0,1.49-0.24,1.92-0.72c0.43-0.48,0.65-1.03,0.65-1.65
					C312.25,867.82,312.2,867.53,312.09,867.24z M364.23,859.49c-0.01-2.66-2.09-4.61-4.77-4.66c-2.01-0.03-1.81,0.26-1.81-1.88
					c-0.01-2.39-0.02-4.78,0-7.17c0.01-0.82-0.24-1.5-0.78-2.12c-5.1-5.81-10.19-11.64-15.28-17.45c-0.27-0.29-0.6-0.53-0.9-0.79
					H300.1c-1.73,0.64-2.48,1.89-2.48,3.72c0.03,8.16,0.01,16.32,0.01,24.48c0,1.21,0,1.28-1.19,1.2c-3.26-0.22-5.48,2.14-5.44,5.42
					c0.1,7.57,0.03,15.14,0.03,22.71c0,3.44,1.89,5.32,5.34,5.33c1.26,0,1.26,0,1.26,1.31v14.49c0.01,2.59,1.27,3.85,3.85,3.85
					c17.45,0.01,34.9,0.01,52.34,0c2.54,0,3.82-1.26,3.83-3.8V889.4c0-1.11,0-1.11,1.13-1.12c0.59-0.01,1.18,0.02,1.76-0.13
					c2.17-0.53,3.68-2.27,3.69-4.5C364.26,875.6,364.27,867.54,364.23,859.49z M354.19,902.42c0,1.21-0.01,1.22-1.2,1.22
					c-8.46,0.01-16.91,0.01-25.37,0.01h-25.28c-1.24,0-1.25-0.01-1.25-1.27v-13.04c0-1.01,0.06-1.06,1.04-1.06h50.97
					c1.04,0,1.09,0.04,1.09,1.09V902.42z M303.58,879.89V862.7h6.05c0.82,0,1.58,0.13,2.29,0.39c0.72,0.27,1.34,0.64,1.87,1.12
					c0.52,0.48,0.94,1.05,1.24,1.72c0.31,0.66,0.46,1.4,0.46,2.2c0,0.81-0.15,1.55-0.46,2.22c-0.3,0.66-0.72,1.23-1.24,1.71
					c-0.53,0.48-1.15,0.86-1.87,1.12c-0.71,0.26-1.47,0.4-2.29,0.4h-2.81v6.31H303.58z M328.48,870.91v-8.21h3.22v17.19h-3.41
					l-7.3-12.17h-0.19l0.19,3.31v8.86h-3.19V862.7h3.77l6.91,11.52h0.19L328.48,870.91z M337.79,873.73
					c0.31,0.73,0.73,1.35,1.27,1.86c0.53,0.52,1.15,0.91,1.86,1.19c0.7,0.28,1.46,0.42,2.26,0.42c0.91,0,1.68-0.13,2.31-0.39
					c0.64-0.27,1.18-0.61,1.62-1.02c0.33-0.29,0.6-0.66,0.83-1.1s0.42-0.93,0.54-1.47h-5.4v-2.77h8.43c0.05,0.2,0.09,0.43,0.12,0.7
					c0.03,0.27,0.05,0.55,0.05,0.82c0,1.1-0.17,2.14-0.51,3.12c-0.33,0.98-0.86,1.85-1.58,2.62c-0.77,0.81-1.69,1.45-2.76,1.89
					c-1.08,0.45-2.3,0.68-3.68,0.68c-1.25,0-2.42-0.23-3.53-0.68c-1.1-0.44-2.06-1.07-2.88-1.87c-0.81-0.8-1.46-1.75-1.94-2.85
					c-0.48-1.09-0.72-2.29-0.72-3.59c0-1.29,0.24-2.49,0.72-3.58c0.48-1.1,1.13-2.05,1.94-2.85c0.82-0.8,1.78-1.42,2.88-1.87
					c1.11-0.45,2.28-0.68,3.53-0.68c1.4,0,2.64,0.24,3.74,0.72c1.09,0.49,2.03,1.15,2.82,2l-2.23,2.18
					c-0.57-0.59-1.19-1.04-1.88-1.35c-0.69-0.32-1.51-0.47-2.47-0.47c-0.79,0-1.53,0.14-2.23,0.42c-0.71,0.28-1.32,0.67-1.85,1.19
					c-0.53,0.51-0.95,1.13-1.26,1.86c-0.32,0.73-0.47,1.54-0.47,2.43C337.32,872.19,337.47,873,337.79,873.73z M354.19,853.74
					c0,1.04-0.05,1.09-1.1,1.09h-50.8c-1.19,0-1.2,0-1.2-1.22v-23.67c0-1.22,0.01-1.22,1.2-1.22c11.62-0.01,23.24-0.01,34.86,0
					c1.19,0,1.2,0.01,1.2,1.22c0.01,4.88,0,9.76,0.01,14.65c0,1.76,0.54,2.3,2.3,2.3c4.16,0.01,8.32,0,12.48,0.01
					c1,0,1.04,0.04,1.05,1.05V853.74z M311.6,869.78c0.43-0.48,0.65-1.03,0.65-1.65c0-0.31-0.05-0.6-0.16-0.89
					c-0.1-0.29-0.26-0.54-0.48-0.76c-0.21-0.22-0.48-0.39-0.8-0.52c-0.32-0.12-0.7-0.19-1.13-0.19h-2.86v4.73h2.86
					C310.53,870.5,311.17,870.26,311.6,869.78z M312.09,867.24c-0.1-0.29-0.26-0.54-0.48-0.76c-0.21-0.22-0.48-0.39-0.8-0.52
					c-0.32-0.12-0.7-0.19-1.13-0.19h-2.86v4.73h2.86c0.85,0,1.49-0.24,1.92-0.72c0.43-0.48,0.65-1.03,0.65-1.65
					C312.25,867.82,312.2,867.53,312.09,867.24z M312.09,867.24c-0.1-0.29-0.26-0.54-0.48-0.76c-0.21-0.22-0.48-0.39-0.8-0.52
					c-0.32-0.12-0.7-0.19-1.13-0.19h-2.86v4.73h2.86c0.85,0,1.49-0.24,1.92-0.72c0.43-0.48,0.65-1.03,0.65-1.65
					C312.25,867.82,312.2,867.53,312.09,867.24z M312.09,867.24c-0.1-0.29-0.26-0.54-0.48-0.76c-0.21-0.22-0.48-0.39-0.8-0.52
					c-0.32-0.12-0.7-0.19-1.13-0.19h-2.86v4.73h2.86c0.85,0,1.49-0.24,1.92-0.72c0.43-0.48,0.65-1.03,0.65-1.65
					C312.25,867.82,312.2,867.53,312.09,867.24z M312.09,867.24c-0.1-0.29-0.26-0.54-0.48-0.76c-0.21-0.22-0.48-0.39-0.8-0.52
					c-0.32-0.12-0.7-0.19-1.13-0.19h-2.86v4.73h2.86c0.85,0,1.49-0.24,1.92-0.72c0.43-0.48,0.65-1.03,0.65-1.65
					C312.25,867.82,312.2,867.53,312.09,867.24z M312.09,867.24c-0.1-0.29-0.26-0.54-0.48-0.76c-0.21-0.22-0.48-0.39-0.8-0.52
					c-0.32-0.12-0.7-0.19-1.13-0.19h-2.86v4.73h2.86c0.85,0,1.49-0.24,1.92-0.72c0.43-0.48,0.65-1.03,0.65-1.65
					C312.25,867.82,312.2,867.53,312.09,867.24z M312.09,867.24c-0.1-0.29-0.26-0.54-0.48-0.76c-0.21-0.22-0.48-0.39-0.8-0.52
					c-0.32-0.12-0.7-0.19-1.13-0.19h-2.86v4.73h2.86c0.85,0,1.49-0.24,1.92-0.72c0.43-0.48,0.65-1.03,0.65-1.65
					C312.25,867.82,312.2,867.53,312.09,867.24z M312.09,867.24c-0.1-0.29-0.26-0.54-0.48-0.76c-0.21-0.22-0.48-0.39-0.8-0.52
					c-0.32-0.12-0.7-0.19-1.13-0.19h-2.86v4.73h2.86c0.85,0,1.49-0.24,1.92-0.72c0.43-0.48,0.65-1.03,0.65-1.65
					C312.25,867.82,312.2,867.53,312.09,867.24z M312.09,867.24c-0.1-0.29-0.26-0.54-0.48-0.76c-0.21-0.22-0.48-0.39-0.8-0.52
					c-0.32-0.12-0.7-0.19-1.13-0.19h-2.86v4.73h2.86c0.85,0,1.49-0.24,1.92-0.72c0.43-0.48,0.65-1.03,0.65-1.65
					C312.25,867.82,312.2,867.53,312.09,867.24z M312.09,867.24c-0.1-0.29-0.26-0.54-0.48-0.76c-0.21-0.22-0.48-0.39-0.8-0.52
					c-0.32-0.12-0.7-0.19-1.13-0.19h-2.86v4.73h2.86c0.85,0,1.49-0.24,1.92-0.72c0.43-0.48,0.65-1.03,0.65-1.65
					C312.25,867.82,312.2,867.53,312.09,867.24z M312.09,867.24c-0.1-0.29-0.26-0.54-0.48-0.76c-0.21-0.22-0.48-0.39-0.8-0.52
					c-0.32-0.12-0.7-0.19-1.13-0.19h-2.86v4.73h2.86c0.85,0,1.49-0.24,1.92-0.72c0.43-0.48,0.65-1.03,0.65-1.65
					C312.25,867.82,312.2,867.53,312.09,867.24z M312.09,867.24c-0.1-0.29-0.26-0.54-0.48-0.76c-0.21-0.22-0.48-0.39-0.8-0.52
					c-0.32-0.12-0.7-0.19-1.13-0.19h-2.86v4.73h2.86c0.85,0,1.49-0.24,1.92-0.72c0.43-0.48,0.65-1.03,0.65-1.65
					C312.25,867.82,312.2,867.53,312.09,867.24z M312.09,867.24c-0.1-0.29-0.26-0.54-0.48-0.76c-0.21-0.22-0.48-0.39-0.8-0.52
					c-0.32-0.12-0.7-0.19-1.13-0.19h-2.86v4.73h2.86c0.85,0,1.49-0.24,1.92-0.72c0.43-0.48,0.65-1.03,0.65-1.65
					C312.25,867.82,312.2,867.53,312.09,867.24z"/>
			</g>
			<g>
				<path style="fill:#606060;" d="M404.84,868.51l-0.62-2.09h-0.19l-0.63,2.09l-1.54,4.3h4.52L404.84,868.51z M404.84,868.51
					l-0.62-2.09h-0.19l-0.63,2.09l-1.54,4.3h4.52L404.84,868.51z M404.84,868.51l-0.62-2.09h-0.19l-0.63,2.09l-1.54,4.3h4.52
					L404.84,868.51z M404.84,868.51l-0.62-2.09h-0.19l-0.63,2.09l-1.54,4.3h4.52L404.84,868.51z M404.84,868.51l-0.62-2.09h-0.19
					l-0.63,2.09l-1.54,4.3h4.52L404.84,868.51z M404.84,868.51l-0.62-2.09h-0.19l-0.63,2.09l-1.54,4.3h4.52L404.84,868.51z
					 M404.84,868.51l-0.62-2.09h-0.19l-0.63,2.09l-1.54,4.3h4.52L404.84,868.51z M404.84,868.51l-0.62-2.09h-0.19l-0.63,2.09
					l-1.54,4.3h4.52L404.84,868.51z M404.84,868.51l-0.62-2.09h-0.19l-0.63,2.09l-1.54,4.3h4.52L404.84,868.51z M404.84,868.51
					l-0.62-2.09h-0.19l-0.63,2.09l-1.54,4.3h4.52L404.84,868.51z M404.84,868.51l-0.62-2.09h-0.19l-0.63,2.09l-1.54,4.3h4.52
					L404.84,868.51z M404.84,868.51l-0.62-2.09h-0.19l-0.63,2.09l-1.54,4.3h4.52L404.84,868.51z M443.44,859.49
					c-0.02-2.66-2.09-4.61-4.77-4.66c-2.01-0.03-1.81,0.26-1.81-1.88c-0.01-2.39-0.02-4.78,0-7.17c0.01-0.82-0.24-1.5-0.79-2.12
					c-5.09-5.81-10.18-11.64-15.28-17.45c-0.26-0.29-0.6-0.53-0.9-0.79h-40.58c-1.73,0.64-2.48,1.89-2.48,3.72
					c0.02,8.16,0.01,16.32,0.01,24.48c0,1.21-0.01,1.28-1.2,1.2c-3.26-0.22-5.47,2.14-5.43,5.42c0.09,7.57,0.03,15.14,0.03,22.71
					c0,3.44,1.89,5.32,5.33,5.33c1.27,0,1.27,0,1.27,1.31v14.49c0,2.59,1.26,3.85,3.85,3.85c17.45,0.01,34.89,0.01,52.34,0
					c2.54,0,3.82-1.26,3.82-3.8c0.01-4.91,0-9.82,0.01-14.73c0-1.11,0-1.11,1.13-1.12c0.59-0.01,1.17,0.02,1.76-0.13
					c2.17-0.53,3.68-2.27,3.69-4.5C443.47,875.6,443.48,867.54,443.44,859.49z M433.39,902.42c0,1.21-0.01,1.22-1.2,1.22
					c-8.45,0.01-16.91,0.01-25.36,0.01h-25.28c-1.25,0-1.25-0.01-1.25-1.27v-13.04c0-1.01,0.05-1.06,1.04-1.06h50.97
					c1.04,0,1.08,0.04,1.08,1.09C433.4,893.72,433.4,898.07,433.39,902.42z M395.81,879.89l6.46-17.19h3.7l6.46,17.19h-3.58
					l-1.41-4.1h-6.63l-1.42,4.1H395.81z M417.26,865.95c-0.4,0.39-0.88,0.59-1.44,0.59c-0.28,0-0.54-0.05-0.79-0.16
					c-0.24-0.1-0.46-0.24-0.64-0.43c-0.19-0.18-0.33-0.39-0.44-0.63c-0.1-0.24-0.15-0.51-0.15-0.8c0-0.28,0.05-0.55,0.15-0.79
					c0.11-0.24,0.25-0.45,0.44-0.64c0.18-0.18,0.4-0.32,0.64-0.43c0.25-0.1,0.51-0.15,0.79-0.15c0.56,0,1.04,0.19,1.44,0.58
					c0.4,0.4,0.6,0.87,0.6,1.43S417.66,865.56,417.26,865.95z M417.4,868.13v11.76h-3.15v-11.76H417.4z M433.39,853.74
					c0,1.04-0.05,1.09-1.09,1.09h-50.8c-1.2,0-1.2,0-1.2-1.22v-23.67c0-1.22,0.01-1.22,1.2-1.22c11.62-0.01,23.24-0.01,34.85,0
					c1.2,0,1.21,0.01,1.21,1.22v14.65c0,1.76,0.55,2.3,2.31,2.3c4.16,0.01,8.32,0,12.48,0.01c0.99,0,1.04,0.04,1.04,1.05
					C433.4,849.88,433.4,851.81,433.39,853.74z M404.84,868.51l-0.62-2.09h-0.19l-0.63,2.09l-1.54,4.3h4.52L404.84,868.51z
					 M404.84,868.51l-0.62-2.09h-0.19l-0.63,2.09l-1.54,4.3h4.52L404.84,868.51z M404.84,868.51l-0.62-2.09h-0.19l-0.63,2.09
					l-1.54,4.3h4.52L404.84,868.51z M404.84,868.51l-0.62-2.09h-0.19l-0.63,2.09l-1.54,4.3h4.52L404.84,868.51z M404.84,868.51
					l-0.62-2.09h-0.19l-0.63,2.09l-1.54,4.3h4.52L404.84,868.51z M404.84,868.51l-0.62-2.09h-0.19l-0.63,2.09l-1.54,4.3h4.52
					L404.84,868.51z M404.84,868.51l-0.62-2.09h-0.19l-0.63,2.09l-1.54,4.3h4.52L404.84,868.51z M404.84,868.51l-0.62-2.09h-0.19
					l-0.63,2.09l-1.54,4.3h4.52L404.84,868.51z M404.84,868.51l-0.62-2.09h-0.19l-0.63,2.09l-1.54,4.3h4.52L404.84,868.51z
					 M404.84,868.51l-0.62-2.09h-0.19l-0.63,2.09l-1.54,4.3h4.52L404.84,868.51z M404.84,868.51l-0.62-2.09h-0.19l-0.63,2.09
					l-1.54,4.3h4.52L404.84,868.51z"/>
			</g>
			<g>
				<path style="fill:#606060;" d="M524.04,859.49c-0.01-2.66-2.08-4.61-4.76-4.66c-2.01-0.03-1.81,0.26-1.82-1.88
					c0-2.39-0.01-4.78,0.01-7.17c0-0.82-0.25-1.5-0.79-2.12c-5.1-5.81-10.18-11.64-15.28-17.45c-0.26-0.29-0.6-0.53-0.9-0.79h-40.59
					c-1.72,0.64-2.48,1.89-2.47,3.72c0.02,8.16,0.01,16.32,0.01,24.48c0,1.21-0.01,1.28-1.2,1.2c-3.26-0.22-5.48,2.14-5.44,5.42
					c0.1,7.57,0.03,15.14,0.03,22.71c0.01,3.44,1.89,5.32,5.34,5.33c1.26,0,1.27,0,1.27,1.31c0,4.83-0.01,9.66,0,14.49
					c0,2.59,1.26,3.85,3.85,3.85c17.44,0.01,34.89,0.01,52.33,0c2.55,0,3.83-1.26,3.83-3.8V889.4c0-1.11,0.01-1.11,1.13-1.12
					c0.59-0.01,1.18,0.02,1.76-0.13c2.17-0.53,3.68-2.27,3.69-4.5C524.08,875.6,524.08,867.54,524.04,859.49z M514,902.42
					c0,1.21-0.01,1.22-1.2,1.22c-8.46,0.01-16.91,0.01-25.36,0.01h-25.29c-1.24,0-1.24-0.01-1.25-1.27c0-4.34,0-8.69,0.01-13.04
					c0-1.01,0.05-1.06,1.04-1.06h50.96c1.04,0,1.09,0.04,1.09,1.09V902.42z M472.78,874.3c-0.11-0.26-0.3-0.5-0.56-0.72
					c-0.27-0.23-0.61-0.44-1.04-0.65c-0.42-0.21-0.94-0.43-1.57-0.65l-1.05-0.38c-0.47-0.16-0.94-0.38-1.41-0.65
					c-0.47-0.28-0.9-0.6-1.28-0.99c-0.39-0.38-0.7-0.83-0.95-1.35c-0.25-0.52-0.37-1.11-0.37-1.77c0-0.67,0.13-1.3,0.39-1.88
					c0.27-0.59,0.64-1.1,1.13-1.54s1.07-0.79,1.75-1.03c0.68-0.25,1.44-0.38,2.27-0.38c0.87,0,1.61,0.12,2.25,0.35
					c0.63,0.24,1.17,0.53,1.61,0.89s0.79,0.76,1.06,1.19c0.28,0.43,0.48,0.84,0.6,1.22l-2.85,1.21c-0.16-0.49-0.46-0.92-0.88-1.3
					c-0.42-0.39-1-0.58-1.74-0.58c-0.7,0-1.29,0.17-1.75,0.49c-0.47,0.33-0.7,0.76-0.7,1.29c0,0.51,0.22,0.95,0.67,1.31
					c0.45,0.36,1.16,0.71,2.14,1.04l1.08,0.36c0.69,0.24,1.32,0.52,1.89,0.83c0.56,0.31,1.05,0.68,1.46,1.12
					c0.41,0.43,0.72,0.92,0.94,1.47c0.21,0.56,0.32,1.19,0.32,1.91c0,0.9-0.18,1.67-0.54,2.32c-0.36,0.65-0.82,1.18-1.38,1.6
					c-0.56,0.41-1.19,0.73-1.9,0.93c-0.7,0.21-1.39,0.32-2.06,0.32c-0.74,0-1.44-0.11-2.12-0.32c-0.67-0.2-1.28-0.52-1.84-0.93
					c-0.56-0.42-1.05-0.93-1.47-1.53c-0.42-0.6-0.74-1.3-0.98-2.1l3.05-1.2c0.22,0.86,0.61,1.58,1.17,2.15s1.3,0.85,2.21,0.85
					c0.34,0,0.66-0.04,0.97-0.13c0.32-0.09,0.6-0.22,0.84-0.38c0.25-0.17,0.45-0.38,0.59-0.64c0.15-0.26,0.22-0.55,0.22-0.89
					C472.95,874.84,472.89,874.55,472.78,874.3z M477.18,862.7h3.5l3.56,10.35l0.62,2.21h0.19l0.67-2.21l3.7-10.35h3.51l-6.27,17.19
					h-3.41L477.18,862.7z M497.09,873.73c0.32,0.73,0.74,1.35,1.28,1.86c0.53,0.52,1.15,0.91,1.86,1.19
					c0.7,0.28,1.45,0.42,2.25,0.42c0.92,0,1.69-0.13,2.32-0.39c0.63-0.27,1.17-0.61,1.62-1.02c0.32-0.29,0.6-0.66,0.83-1.1
					s0.41-0.93,0.54-1.47h-5.4v-2.77h8.43c0.04,0.2,0.08,0.43,0.12,0.7c0.03,0.27,0.04,0.55,0.04,0.82c0,1.1-0.16,2.14-0.5,3.12
					c-0.34,0.98-0.86,1.85-1.59,2.62c-0.76,0.81-1.68,1.45-2.76,1.89c-1.07,0.45-2.29,0.68-3.67,0.68c-1.25,0-2.43-0.23-3.53-0.68
					c-1.1-0.44-2.06-1.07-2.88-1.87s-1.47-1.75-1.95-2.85c-0.48-1.09-0.72-2.29-0.72-3.59c0-1.29,0.24-2.49,0.72-3.58
					c0.48-1.1,1.13-2.05,1.95-2.85s1.78-1.42,2.88-1.87c1.1-0.45,2.28-0.68,3.53-0.68c1.39,0,2.64,0.24,3.73,0.72
					c1.1,0.49,2.04,1.15,2.83,2l-2.24,2.18c-0.56-0.59-1.18-1.04-1.87-1.35c-0.69-0.32-1.51-0.47-2.47-0.47
					c-0.79,0-1.53,0.14-2.24,0.42c-0.7,0.28-1.32,0.67-1.85,1.19c-0.52,0.51-0.94,1.13-1.26,1.86c-0.31,0.73-0.47,1.54-0.47,2.43
					C496.62,872.19,496.78,873,497.09,873.73z M514,853.74c0,1.04-0.05,1.09-1.1,1.09h-50.79c-1.2,0-1.2,0-1.21-1.22v-23.67
					c0-1.22,0.01-1.22,1.2-1.22c11.62-0.01,23.24-0.01,34.86,0c1.19,0,1.21,0.01,1.21,1.22c0,4.88-0.01,9.76,0,14.65
					c0,1.76,0.54,2.3,2.31,2.3c4.15,0.01,8.31,0,12.47,0.01c1,0,1.05,0.04,1.05,1.05C514.01,849.88,514,851.81,514,853.74z"/>
			</g>
			<g>
				<path style="fill:#606060;" d="M569.15,867.24c-0.11-0.29-0.27-0.54-0.48-0.76c-0.22-0.22-0.49-0.39-0.81-0.52
					c-0.32-0.12-0.69-0.19-1.13-0.19h-2.85v4.73h2.85c0.85,0,1.49-0.24,1.93-0.72c0.43-0.48,0.64-1.03,0.64-1.65
					C569.3,867.82,569.25,867.53,569.15,867.24z M569.15,867.24c-0.11-0.29-0.27-0.54-0.48-0.76c-0.22-0.22-0.49-0.39-0.81-0.52
					c-0.32-0.12-0.69-0.19-1.13-0.19h-2.85v4.73h2.85c0.85,0,1.49-0.24,1.93-0.72c0.43-0.48,0.64-1.03,0.64-1.65
					C569.3,867.82,569.25,867.53,569.15,867.24z M569.15,867.24c-0.11-0.29-0.27-0.54-0.48-0.76c-0.22-0.22-0.49-0.39-0.81-0.52
					c-0.32-0.12-0.69-0.19-1.13-0.19h-2.85v4.73h2.85c0.85,0,1.49-0.24,1.93-0.72c0.43-0.48,0.64-1.03,0.64-1.65
					C569.3,867.82,569.25,867.53,569.15,867.24z M569.15,867.24c-0.11-0.29-0.27-0.54-0.48-0.76c-0.22-0.22-0.49-0.39-0.81-0.52
					c-0.32-0.12-0.69-0.19-1.13-0.19h-2.85v4.73h2.85c0.85,0,1.49-0.24,1.93-0.72c0.43-0.48,0.64-1.03,0.64-1.65
					C569.3,867.82,569.25,867.53,569.15,867.24z M598.21,854.83c-2.01-0.03-1.81,0.26-1.82-1.88c0-2.39-0.01-4.78,0.01-7.17
					c0.01-0.82-0.24-1.5-0.79-2.12c-5.1-5.81-10.18-11.64-15.28-17.45c-0.26-0.29-0.6-0.53-0.9-0.79h-40.58
					c-1.73,0.64-2.48,1.89-2.48,3.72c0.02,8.16,0.01,16.32,0.01,24.48c0,1.21-0.01,1.28-1.2,1.2c-3.26-0.22-5.48,2.14-5.43,5.42
					c0.09,7.57,0.02,15.14,0.03,22.71c0,3.44,1.88,5.32,5.33,5.33c1.27,0,1.27,0,1.27,1.31v14.49c0,2.59,1.26,3.85,3.85,3.85
					c17.45,0.01,34.89,0.01,52.34,0c2.54,0,3.82-1.26,3.82-3.8c0.01-4.91,0-9.82,0-14.73c0-1.11,0.01-1.11,1.14-1.12
					c0.58-0.01,1.17,0.02,1.76-0.13c2.17-0.53,3.68-2.27,3.69-4.5c0.03-8.05,0.03-16.11,0-24.16
					C602.96,856.83,600.89,854.88,598.21,854.83z M592.93,902.42c0,1.21-0.01,1.22-1.2,1.22c-8.45,0.01-16.91,0.01-25.36,0.01
					h-25.28c-1.25,0-1.25-0.01-1.25-1.27v-13.04c0-1.01,0.05-1.06,1.04-1.06h50.97c1.04,0,1.08,0.04,1.08,1.09
					C592.94,893.72,592.94,898.07,592.93,902.42z M556.89,869.76v3.07H550v3.99h7.66v3.07h-10.9V862.7h10.9v3.07H550v3.99H556.89z
					 M560.64,879.89V862.7h6.05c0.81,0,1.58,0.13,2.29,0.39c0.71,0.27,1.33,0.64,1.86,1.12c0.53,0.48,0.94,1.05,1.25,1.72
					c0.3,0.66,0.46,1.4,0.46,2.2c0,0.81-0.16,1.55-0.46,2.22c-0.31,0.66-0.72,1.23-1.25,1.71c-0.53,0.48-1.15,0.86-1.86,1.12
					c-0.71,0.26-1.48,0.4-2.29,0.4h-2.81v6.31H560.64z M582.58,874.3c-0.11-0.26-0.3-0.5-0.56-0.72c-0.27-0.23-0.61-0.44-1.03-0.65
					c-0.43-0.21-0.95-0.43-1.58-0.65l-1.05-0.38c-0.47-0.16-0.94-0.38-1.41-0.65c-0.47-0.28-0.9-0.6-1.28-0.99
					c-0.39-0.38-0.7-0.83-0.95-1.35c-0.25-0.52-0.37-1.11-0.37-1.77c0-0.67,0.13-1.3,0.39-1.88c0.27-0.59,0.64-1.1,1.13-1.54
					s1.07-0.79,1.75-1.03c0.68-0.25,1.44-0.38,2.27-0.38c0.87,0,1.62,0.12,2.25,0.35c0.63,0.24,1.17,0.53,1.61,0.89
					s0.79,0.76,1.07,1.19c0.27,0.43,0.47,0.84,0.6,1.22l-2.86,1.21c-0.16-0.49-0.45-0.92-0.88-1.3c-0.42-0.39-1-0.58-1.74-0.58
					c-0.7,0-1.29,0.17-1.75,0.49c-0.47,0.33-0.7,0.76-0.7,1.29c0,0.51,0.23,0.95,0.67,1.31c0.45,0.36,1.16,0.71,2.14,1.04l1.08,0.36
					c0.69,0.24,1.32,0.52,1.89,0.83c0.56,0.31,1.05,0.68,1.46,1.12c0.41,0.43,0.72,0.92,0.94,1.47c0.21,0.56,0.32,1.19,0.32,1.91
					c0,0.9-0.18,1.67-0.54,2.32c-0.36,0.65-0.82,1.18-1.38,1.6c-0.56,0.41-1.19,0.73-1.9,0.93c-0.7,0.21-1.39,0.32-2.06,0.32
					c-0.74,0-1.44-0.11-2.11-0.32c-0.68-0.2-1.29-0.52-1.85-0.93c-0.56-0.42-1.05-0.93-1.47-1.53c-0.41-0.6-0.74-1.3-0.98-2.1
					l3.05-1.2c0.22,0.86,0.61,1.58,1.17,2.15s1.3,0.85,2.21,0.85c0.34,0,0.66-0.04,0.98-0.13c0.31-0.09,0.59-0.22,0.84-0.38
					c0.24-0.17,0.44-0.38,0.58-0.64c0.15-0.26,0.22-0.55,0.22-0.89C582.75,874.84,582.69,874.55,582.58,874.3z M592.93,853.74
					c0,1.04-0.05,1.09-1.09,1.09h-50.8c-1.2,0-1.2,0-1.2-1.22v-23.67c0-1.22,0.01-1.22,1.2-1.22c11.62-0.01,23.23-0.01,34.85,0
					c1.2,0,1.21,0.01,1.21,1.22v14.65c0,1.76,0.54,2.3,2.31,2.3c4.16,0.01,8.32,0,12.48,0.01c0.99,0,1.04,0.04,1.04,1.05
					C592.94,849.88,592.94,851.81,592.93,853.74z M568.66,869.78c0.43-0.48,0.64-1.03,0.64-1.65c0-0.31-0.05-0.6-0.15-0.89
					c-0.11-0.29-0.27-0.54-0.48-0.76c-0.22-0.22-0.49-0.39-0.81-0.52c-0.32-0.12-0.69-0.19-1.13-0.19h-2.85v4.73h2.85
					C567.58,870.5,568.22,870.26,568.66,869.78z M569.15,867.24c-0.11-0.29-0.27-0.54-0.48-0.76c-0.22-0.22-0.49-0.39-0.81-0.52
					c-0.32-0.12-0.69-0.19-1.13-0.19h-2.85v4.73h2.85c0.85,0,1.49-0.24,1.93-0.72c0.43-0.48,0.64-1.03,0.64-1.65
					C569.3,867.82,569.25,867.53,569.15,867.24z M569.15,867.24c-0.11-0.29-0.27-0.54-0.48-0.76c-0.22-0.22-0.49-0.39-0.81-0.52
					c-0.32-0.12-0.69-0.19-1.13-0.19h-2.85v4.73h2.85c0.85,0,1.49-0.24,1.93-0.72c0.43-0.48,0.64-1.03,0.64-1.65
					C569.3,867.82,569.25,867.53,569.15,867.24z M569.15,867.24c-0.11-0.29-0.27-0.54-0.48-0.76c-0.22-0.22-0.49-0.39-0.81-0.52
					c-0.32-0.12-0.69-0.19-1.13-0.19h-2.85v4.73h2.85c0.85,0,1.49-0.24,1.93-0.72c0.43-0.48,0.64-1.03,0.64-1.65
					C569.3,867.82,569.25,867.53,569.15,867.24z M569.15,867.24c-0.11-0.29-0.27-0.54-0.48-0.76c-0.22-0.22-0.49-0.39-0.81-0.52
					c-0.32-0.12-0.69-0.19-1.13-0.19h-2.85v4.73h2.85c0.85,0,1.49-0.24,1.93-0.72c0.43-0.48,0.64-1.03,0.64-1.65
					C569.3,867.82,569.25,867.53,569.15,867.24z"/>
			</g>
		</g>
		<g style="opacity:0.61;">
			<path style="fill:#606060;" d="M609.14,872.2v4.88h19.74v-4.88H609.14z M609.14,863.79v4.88h19.74v-4.88H609.14z"/>
		</g>
	</g>
	<g style="opacity:0.61;">
		<path style="fill:#606060;" d="M300.5,963.08H297v8.59h3.5c2.75,0,4.6-1.77,4.6-4.3C305.1,964.84,303.25,963.08,300.5,963.08z
			 M300.45,970.88h-2.54v-7.02h2.54c2.28,0,3.76,1.45,3.76,3.51C304.21,969.44,302.73,970.88,300.45,970.88z"/>
		<path style="fill:#606060;" d="M319.77,963c-2.6,0-4.52,1.87-4.52,4.37c0,2.51,1.92,4.37,4.52,4.37c2.58,0,4.5-1.85,4.5-4.37
			C324.27,964.86,322.35,963,319.77,963z M319.77,970.93c-2.08,0-3.62-1.51-3.62-3.56s1.54-3.56,3.62-3.56c2.06,0,3.6,1.51,3.6,3.56
			S321.83,970.93,319.77,970.93z"/>
		<path style="fill:#606060;" d="M345.85,963.08l-2.51,7.42l-2.53-7.42h-0.85l-2.57,7.39l-2.47-7.39h-0.94l2.9,8.59h0.94l2.53-7.33
			l2.52,7.33h0.96l2.89-8.59H345.85z"/>
		<path style="fill:#606060;" d="M363.54,963.08v6.97l-5.54-6.97h-0.75v8.59h0.91v-6.97l5.53,6.97h0.75v-8.59H363.54z"/>
		<path style="fill:#606060;" d="M377.02,970.88v-7.8h-0.91v8.59h5.72v-0.79H377.02z"/>
		<path style="fill:#606060;" d="M395.8,963c-2.61,0-4.52,1.87-4.52,4.37c0,2.51,1.91,4.37,4.52,4.37c2.57,0,4.5-1.85,4.5-4.37
			C400.3,964.86,398.37,963,395.8,963z M395.8,970.93c-2.08,0-3.62-1.51-3.62-3.56s1.54-3.56,3.62-3.56c2.06,0,3.59,1.51,3.59,3.56
			S397.86,970.93,395.8,970.93z"/>
		<path style="fill:#606060;" d="M414.54,963.08h-0.9l-3.93,8.59h0.95l1.03-2.3h4.79l1.03,2.3h0.96L414.54,963.08z M412.02,968.64
			l2.06-4.62l2.07,4.62H412.02z"/>
		<path style="fill:#606060;" d="M432.26,963.08h-3.49v8.59h3.49c2.75,0,4.61-1.77,4.61-4.3
			C436.87,964.84,435.01,963.08,432.26,963.08z M432.21,970.88h-2.54v-7.02h2.54c2.29,0,3.76,1.45,3.76,3.51
			C435.97,969.44,434.5,970.88,432.21,970.88z"/>
		<path style="fill:#606060;" d="M463.32,963.08h-0.9l-3.93,8.59h0.95l1.03-2.3h4.79l1.03,2.3h0.96L463.32,963.08z M460.8,968.64
			l2.06-4.62l2.07,4.62H460.8z"/>
		<path style="fill:#606060;" d="M478.45,970.88v-7.8h-0.91v8.59h5.72v-0.79H478.45z"/>
		<path style="fill:#606060;" d="M494.56,970.88v-7.8h-0.91v8.59h5.72v-0.79H494.56z"/>
		<path style="fill:#606060;" d="M527.73,963.86v-0.78h-5.89v8.59h0.91v-3.65h4.44v-0.78h-4.44v-3.38H527.73z"/>
		<path style="fill:#606060;" d="M538.49,963.08v8.59h0.9v-8.59H538.49z"/>
		<path style="fill:#606060;" d="M551.98,970.88v-7.8h-0.91v8.59h5.72v-0.79H551.98z"/>
		<path style="fill:#606060;" d="M568.08,970.88v-3.19h4.44v-0.77h-4.44v-3.06h4.98v-0.78h-5.89v8.59h6.08v-0.79H568.08z"/>
		<path style="fill:#606060;" d="M602.24,963.86v-0.78h-5.89v8.59h0.91v-3.65h4.44v-0.78h-4.44v-3.38H602.24z"/>
		<path style="fill:#606060;" d="M616.64,963c-2.61,0-4.52,1.87-4.52,4.37c0,2.51,1.91,4.37,4.52,4.37c2.57,0,4.5-1.85,4.5-4.37
			C621.14,964.86,619.21,963,616.64,963z M616.64,970.93c-2.08,0-3.63-1.51-3.63-3.56s1.55-3.56,3.63-3.56
			c2.06,0,3.59,1.51,3.59,3.56S618.7,970.93,616.64,970.93z"/>
		<path style="fill:#606060;" d="M636.81,968.72c1.26-0.4,1.97-1.35,1.97-2.7c0-1.84-1.33-2.94-3.51-2.94h-3.22v8.59h0.91v-2.73
			h2.31c0.24,0,0.46-0.01,0.69-0.03l1.96,2.76h0.99L636.81,968.72z M635.24,968.17h-2.28v-4.31h2.28c1.72,0,2.63,0.79,2.63,2.16
			C637.87,967.37,636.96,968.17,635.24,968.17z"/>
		<path style="fill:#606060;" d="M657.98,963.08l-3.7,6.37l-3.73-6.37h-0.75v8.59h0.87v-6.84l3.38,5.75h0.43l3.37-5.79v6.88h0.87
			v-8.59H657.98z"/>
		<path style="fill:#606060;" d="M673.85,963.08h-0.9l-3.93,8.59h0.95l1.03-2.3h4.79l1.03,2.3h0.95L673.85,963.08z M671.33,968.64
			l2.06-4.62l2.06,4.62H671.33z"/>
		<path style="fill:#606060;" d="M686.29,963.08v0.78h3.02v7.81h0.91v-7.81h3.02v-0.78H686.29z"/>
		<path style="fill:#606060;" d="M703.71,965.34c0-0.86,0.7-1.56,2.27-1.56c0.76,0,1.62,0.23,2.36,0.71l0.3-0.73
			c-0.68-0.47-1.69-0.76-2.66-0.76c-2.18,0-3.17,1.1-3.17,2.36c0,3.18,5.29,1.73,5.29,4.09c0,0.84-0.7,1.52-2.3,1.52
			c-1.13,0-2.22-0.44-2.84-1.04l-0.35,0.7c0.63,0.66,1.9,1.11,3.19,1.11c2.19,0,3.2-1.08,3.2-2.34
			C709,966.27,703.71,967.69,703.71,965.34z"/>
	</g>
</g>
<g>
</g>
<g>
	<g>
		<linearGradient id="SVGID_1_" gradientUnits="userSpaceOnUse" x1="494.1572" y1="367.0514" x2="494.1572" y2="483.6536">
			<stop  offset="0" style="stop-color:#A2C0DB"/>
			<stop  offset="0.3501" style="stop-color:#A0BDD8"/>
			<stop  offset="0.6313" style="stop-color:#98B5CE"/>
			<stop  offset="0.8877" style="stop-color:#8CA6BD"/>
			<stop  offset="1" style="stop-color:#859EB3"/>
		</linearGradient>
		<path style="fill:url(#SVGID_1_);" d="M320.406,438.401c22.533-34.818,57.957-56.442,92.38-56.442
			c17.827,0,32.279,5.18,47.568,10.613l48.191,10.849l43.972-10.229c14.538-5.504,29.605-11.232,51.466-11.232
			c26.273,0,52.602,14.643,74.201,36.576c-19.397,15.041-33.8,34.138-42.127,55.821c4.649,0.4,9.089,0.843,13.682,1.314
			c8.282-23.099,24.682-43.882,50.126-57.904c-25.715-32.086-61.815-50.714-95.881-50.714c-45.075,0-64.131,21.475-95.438,21.475
			c-32.25,0-56.718-21.475-95.758-21.475c-38.285,0-79.038,23.335-104.885,63.186c-9.504,14.731-15.941,33.033-19.45,53.416
			c5.104-0.693,10.356-1.388,15.498-2.109C307.282,464.659,312.936,449.942,320.406,438.401z"/>
		
			<linearGradient id="SVGID_00000040554573709373280400000005826761137767082170_" gradientUnits="userSpaceOnUse" x1="491.066" y1="381.9589" x2="491.066" y2="481.5443">
			<stop  offset="0" style="stop-color:#D4D9E3"/>
			<stop  offset="1" style="stop-color:#FFFFFF"/>
		</linearGradient>
		<path style="fill:url(#SVGID_00000040554573709373280400000005826761137767082170_);" d="M678.183,418.534
			c-21.599-21.933-47.928-36.576-74.201-36.576c-21.861,0-36.928,5.727-51.466,11.232l-43.972,10.229l-48.191-10.849
			c-15.289-5.432-29.741-10.613-47.568-10.613c-34.423,0-69.847,21.623-92.38,56.442c-7.47,11.542-13.124,26.258-16.457,43.144
			c60.072-8.118,127.18-12.857,198.396-12.857c46.567,0,91.379,2.038,133.711,5.668
			C644.383,452.672,658.787,433.575,678.183,418.534z"/>
		
			<linearGradient id="SVGID_00000104668374692852661660000006975502833747207066_" gradientUnits="userSpaceOnUse" x1="543.3237" y1="250" x2="543.3237" y2="370.3637">
			<stop  offset="0" style="stop-color:#A2C0DB"/>
			<stop  offset="0.3501" style="stop-color:#A0BDD8"/>
			<stop  offset="0.6313" style="stop-color:#98B5CE"/>
			<stop  offset="0.8877" style="stop-color:#8CA6BD"/>
			<stop  offset="1" style="stop-color:#859EB3"/>
		</linearGradient>
		<path style="fill:url(#SVGID_00000104668374692852661660000006975502833747207066_);" d="M569.785,331.179
			c16.371-21.004,28.81-50.7,24.292-81.179c-26.756,1.874-58.063,18.936-76.308,41.18c-16.556,20.162-30.299,50.079-24.969,79.15
			C522.025,371.243,552.221,353.745,569.785,331.179z M529.269,300.64c12.042-14.672,30.909-24.827,49.195-30.479
			c-2.48,23.792-14.038,43.644-20.458,51.881c-12.734,16.412-31.66,26.184-50.241,29.991
			C509.872,328.006,523.911,307.237,529.269,300.64z"/>
		
			<linearGradient id="SVGID_00000044865014310379790990000012225837039987031431_" gradientUnits="userSpaceOnUse" x1="543.1147" y1="352.0335" x2="543.1147" y2="270.1617">
			<stop  offset="0" style="stop-color:#D4D9E3"/>
			<stop  offset="1" style="stop-color:#FFFFFF"/>
		</linearGradient>
		<path style="fill:url(#SVGID_00000044865014310379790990000012225837039987031431_);" d="M558.006,322.042
			c6.421-8.237,17.978-28.089,20.458-51.881c-18.286,5.652-37.154,15.807-49.195,30.479c-5.358,6.597-19.397,27.365-21.504,51.393
			C526.346,348.226,545.271,338.454,558.006,322.042z"/>
		
			<linearGradient id="SVGID_00000029029019146637476840000001189534827898895777_" gradientUnits="userSpaceOnUse" x1="500" y1="474.3551" x2="500" y2="750">
			<stop  offset="0" style="stop-color:#A2C0DB"/>
			<stop  offset="0.3501" style="stop-color:#A0BDD8"/>
			<stop  offset="0.6313" style="stop-color:#98B5CE"/>
			<stop  offset="0.8877" style="stop-color:#8CA6BD"/>
			<stop  offset="1" style="stop-color:#859EB3"/>
		</linearGradient>
		<path style="fill:url(#SVGID_00000029029019146637476840000001189534827898895777_);" d="M336.666,681.449
			c21.106,32.09,49.24,68.236,85.992,68.547c32.738,0.324,42.025-20.93,86.345-21.152c44.386-0.25,52.799,21.373,85.492,21.061
			c36.764-0.312,66.443-40.311,87.55-72.397c15.031-23.025,20.713-34.657,32.398-60.692c-59.42-22.406-83.86-87.88-64.705-141.149
			c-4.592-0.471-9.032-0.914-13.682-1.314c-4.547,11.867-7.794,24.339-7.794,37.933c0,3.071,0.131,6.185,0.369,9.358
			c3.116,44.074,28.339,80.81,65.874,101.059c-8.073,15.1-24.957,46.657-24.957,46.657c-19.975,30.479-46.567,65.431-75.176,65.665
			l-29.458-7.999c-12.886-5.888-28.868-13.239-55.985-13.079c-26.818,0.148-42.98,7.351-55.968,13.182l-30.172,7.987
			c-29.519-0.238-54.845-33.197-73.618-61.786c-44.517-67.85-55.395-140.187-45.222-191.787c-5.141,0.722-10.393,1.417-15.498,2.109
			C278.71,540.834,293.26,615.313,336.666,681.449z"/>
		
			<linearGradient id="SVGID_00000100385205922264155450000016692145144528109962_" gradientUnits="userSpaceOnUse" x1="497.4639" y1="735.1174" x2="497.4639" y2="468.687">
			<stop  offset="0" style="stop-color:#A2C0DB"/>
			<stop  offset="0.3501" style="stop-color:#A0BDD8"/>
			<stop  offset="0.6313" style="stop-color:#98B5CE"/>
			<stop  offset="0.8877" style="stop-color:#8CA6BD"/>
			<stop  offset="1" style="stop-color:#859EB3"/>
		</linearGradient>
		<path style="fill:url(#SVGID_00000100385205922264155450000016692145144528109962_);" d="M303.949,481.544
			c-10.172,51.6,0.705,123.937,45.222,191.787c18.774,28.589,44.099,61.549,73.618,61.786l30.172-7.987
			c12.988-5.83,29.15-13.034,55.968-13.182c27.117-0.16,43.098,7.191,55.985,13.079l29.458,7.999
			c28.609-0.234,55.201-35.186,75.176-65.665c0,0,16.884-31.557,24.957-46.657c-37.535-20.249-62.758-56.985-65.874-101.059
			c-0.238-3.174-0.369-6.287-0.369-9.358c0-13.593,3.247-26.065,7.794-37.933c-42.332-3.63-87.144-5.668-133.711-5.668
			C431.129,468.687,364.021,473.426,303.949,481.544z"/>
	</g>
</g>
</svg>
