<svg id="Layer_1" data-name="Layer 1" xmlns="http://www.w3.org/2000/svg" viewBox="0 0 638 172.08"><defs><style>.cls-1{fill:#002575;}</style></defs><title>ASUS Logo Vector</title><path class="cls-1" d="M792,429.77a12.92,12.92,0,1,1,25.84,0,12.94,12.94,0,0,1-12.84,13,13,13,0,0,1-13-13m-1.09,0A14.09,14.09,0,0,0,805,443.83a14.06,14.06,0,0,0,0-28.12,14.09,14.09,0,0,0-14.09,14.06" transform="translate(-181 -413.96)"/><path class="cls-1" d="M799.73,438.05h2v-6.54h4.46a4.08,4.08,0,0,1,1.74.26,2.2,2.2,0,0,1,1,2l.18,2.55c0,.58,0,1,0,1.19a1.38,1.38,0,0,1,.19.5h2.49v-.36c-.32-.11-.47-.43-.65-.93a4.89,4.89,0,0,1-.12-1.28l-.08-2.05a3.64,3.64,0,0,0-.45-1.92,3.41,3.41,0,0,0-1.38-1,4.48,4.48,0,0,0,1.59-1.4,4.43,4.43,0,0,0,.53-2.23,3.63,3.63,0,0,0-2-3.61,6.41,6.41,0,0,0-2.75-.5h-6.71Zm2-8.28v-5.22h4.75a3.79,3.79,0,0,1,1.66.32,2.4,2.4,0,0,1,1.11,2.21,2.46,2.46,0,0,1-.83,2.14,3.6,3.6,0,0,1-2.14.55Z" transform="translate(-181 -413.96)"/><polygon class="cls-1" points="57.79 35.17 0 124.64 39.5 124.64 95.05 39.1 57.79 35.17"/><path class="cls-1" d="M240.13,447.12s13.64-22.23,17-26.62a14.42,14.42,0,0,1,12-6.33H328.8v30.28s3-11.62,8.37-17.14c5-5.2,11.69-12.4,27-13.35H476.45v33.16Z" transform="translate(-181 -413.96)"/><path class="cls-1" d="M781.83,447.15V414H661.66c-15.23,1-21.94,8.15-27,13.35-5.35,5.52-8.35,17.14-8.35,17.14v2.67Z" transform="translate(-181 -413.96)"/><rect class="cls-1" x="301.31" y="0.16" width="33.58" height="33"/><rect class="cls-1" x="411.56" y="0.16" width="33.55" height="33"/><path class="cls-1" d="M626.1,459l-33-1.95v38.28s-.1,11-10.87,11H525.56s-9.6-.78-9.6-10.92V451.88l-33.32-2.38v58.71c5.39,28.16,31.08,30.33,31.08,30.33l3,.22h76.57S626.1,536.14,626.1,505Z" transform="translate(-181 -413.96)"/><path class="cls-1" d="M294.71,538.62H451.76c27.36-5.43,30.21-30,30.21-30a48.85,48.85,0,0,0,.54-13.21c-.82-4.93-10.28-26.67-30.81-28.56-12.24-1.12-121.19-9.68-121.19-9.68,2.11,10.8,7,16.25,10.28,19.37,7.57,7.19,19.6,9.23,19.6,9.23,2.91.27,84,6.91,84,6.91,2.58.13,7.48.78,7.42,7.11a6.6,6.6,0,0,1-6.93,6.36H327.37V456.89l-32.66-2.36Z" transform="translate(-181 -413.96)"/><path class="cls-1" d="M626.42,505.94H743.09a13.89,13.89,0,0,0,5.59-1.57,7.08,7.08,0,0,0,2.2-5c0-6.32-5.27-6.6-7.92-6.73l-84.82-7s-11.36-1.73-18.94-8.95c-3.29-3.09-7.65-6.47-10.9-17.61,0,0,109.57,6.39,121.74,7.52,20.55,1.95,30.18,22.07,31.05,28.77a52.26,52.26,0,0,1-.19,13.48s-4.26,28.29-34.4,30H626.35Z" transform="translate(-181 -413.96)"/><path class="cls-1" d="M792,429.77a12.92,12.92,0,1,1,25.84,0,12.94,12.94,0,0,1-12.84,13,13,13,0,0,1-13-13m-1.09,0A14.09,14.09,0,0,0,805,443.83a14.06,14.06,0,0,0,0-28.12,14.09,14.09,0,0,0-14.09,14.06" transform="translate(-181 -413.96)"/><path class="cls-1" d="M799.73,438.05h2v-6.54h4.46a4.08,4.08,0,0,1,1.74.26,2.2,2.2,0,0,1,1,2l.18,2.55c0,.58,0,1,0,1.19a1.38,1.38,0,0,1,.19.5h2.49v-.36c-.32-.11-.47-.43-.65-.93a4.89,4.89,0,0,1-.12-1.28l-.08-2.05a3.64,3.64,0,0,0-.45-1.92,3.41,3.41,0,0,0-1.38-1,4.48,4.48,0,0,0,1.59-1.4,4.43,4.43,0,0,0,.53-2.23,3.63,3.63,0,0,0-2-3.61,6.41,6.41,0,0,0-2.75-.5h-6.71Zm2-8.28v-5.22h4.75a3.79,3.79,0,0,1,1.66.32,2.4,2.4,0,0,1,1.11,2.21,2.46,2.46,0,0,1-.83,2.14,3.6,3.6,0,0,1-2.14.55Z" transform="translate(-181 -413.96)"/><polygon class="cls-1" points="57.79 35.17 0 124.64 39.5 124.64 95.05 39.1 57.79 35.17"/><path class="cls-1" d="M240.13,447.12s13.64-22.23,17-26.62a14.42,14.42,0,0,1,12-6.33H328.8v30.28s3-11.62,8.37-17.14c5-5.2,11.69-12.4,27-13.35H476.45v33.16Z" transform="translate(-181 -413.96)"/><path class="cls-1" d="M781.83,447.15V414H661.66c-15.23,1-21.94,8.15-27,13.35-5.35,5.52-8.35,17.14-8.35,17.14v2.67Z" transform="translate(-181 -413.96)"/><rect class="cls-1" x="301.31" y="0.16" width="33.58" height="33"/><rect class="cls-1" x="411.56" y="0.16" width="33.55" height="33"/><path class="cls-1" d="M626.1,459l-33-1.95v38.28s-.1,11-10.87,11H525.56s-9.6-.78-9.6-10.92V451.88l-33.32-2.38v58.71c5.39,28.16,31.08,30.33,31.08,30.33l3,.22h76.57S626.1,536.14,626.1,505Z" transform="translate(-181 -413.96)"/><path class="cls-1" d="M294.71,538.62H451.76c27.36-5.43,30.21-30,30.21-30a48.85,48.85,0,0,0,.54-13.21c-.82-4.93-10.28-26.67-30.81-28.56-12.24-1.12-121.19-9.68-121.19-9.68,2.11,10.8,7,16.25,10.28,19.37,7.57,7.19,19.6,9.23,19.6,9.23,2.91.27,84,6.91,84,6.91,2.58.13,7.48.78,7.42,7.11a6.6,6.6,0,0,1-6.93,6.36H327.37V456.89l-32.66-2.36Z" transform="translate(-181 -413.96)"/><path class="cls-1" d="M626.42,505.94H743.09a13.89,13.89,0,0,0,5.59-1.57,7.08,7.08,0,0,0,2.2-5c0-6.32-5.27-6.6-7.92-6.73l-84.82-7s-11.36-1.73-18.94-8.95c-3.29-3.09-7.65-6.47-10.9-17.61,0,0,109.57,6.39,121.74,7.52,20.55,1.95,30.18,22.07,31.05,28.77a52.26,52.26,0,0,1-.19,13.48s-4.26,28.29-34.4,30H626.35Z" transform="translate(-181 -413.96)"/><rect class="cls-1" x="0.44" y="144.15" width="4.27" height="21.58"/><path class="cls-1" d="M203.79,579.69h-4.08v-8a12.73,12.73,0,0,0-.26-3.27,2.33,2.33,0,0,0-.85-1.15,2.35,2.35,0,0,0-1.41-.42,3.24,3.24,0,0,0-1.9.59,3,3,0,0,0-1.15,1.56,13.59,13.59,0,0,0-.31,3.59v7.06h-4.09V564h3.79v2.29a6.21,6.21,0,0,1,5.08-2.56,6.05,6.05,0,0,1,2.47.49,4.13,4.13,0,0,1,1.68,1.26,4.58,4.58,0,0,1,.8,1.73,13,13,0,0,1,.23,2.77Z" transform="translate(-181 -413.96)"/><path class="cls-1" d="M206.49,575.3l4.08-.65a3,3,0,0,0,1.06,1.82,3.53,3.53,0,0,0,2.24.62,4,4,0,0,0,2.38-.59,1.31,1.31,0,0,0,.54-1.11,1.12,1.12,0,0,0-.29-.78,3.26,3.26,0,0,0-1.37-.55q-4.95-1.11-6.28-2a4,4,0,0,1-1.83-3.51,4.37,4.37,0,0,1,1.58-3.41,7.34,7.34,0,0,1,4.91-1.38,8.56,8.56,0,0,1,4.71,1,5.35,5.35,0,0,1,2.11,3.08l-3.83.71a2.49,2.49,0,0,0-.94-1.41,3.35,3.35,0,0,0-2-.49,4.3,4.3,0,0,0-2.31.46,1,1,0,0,0-.47.83.92.92,0,0,0,.41.76A14.84,14.84,0,0,0,215,569.9a11.34,11.34,0,0,1,4.56,1.84,3.88,3.88,0,0,1,1.28,3.09,4.78,4.78,0,0,1-1.77,3.7,7.74,7.74,0,0,1-5.23,1.54,8.51,8.51,0,0,1-5-1.28,5.87,5.87,0,0,1-2.4-3.49" transform="translate(-181 -413.96)"/><path class="cls-1" d="M224.38,564h3.78v2.29a5.56,5.56,0,0,1,2-1.87,5.71,5.71,0,0,1,2.79-.69,5.86,5.86,0,0,1,4.56,2.13,8.72,8.72,0,0,1,1.87,5.94,9,9,0,0,1-1.88,6.09,5.85,5.85,0,0,1-4.56,2.16,5.09,5.09,0,0,1-2.31-.51,7.75,7.75,0,0,1-2.18-1.76v7.86h-4.08Zm4,7.64a6.17,6.17,0,0,0,1,3.9,3.12,3.12,0,0,0,2.49,1.26,2.89,2.89,0,0,0,2.35-1.16,6,6,0,0,0,.94-3.79,5.75,5.75,0,0,0-1-3.67,3,3,0,0,0-2.38-1.2,3.05,3.05,0,0,0-2.47,1.18,5.33,5.33,0,0,0-1,3.48" transform="translate(-181 -413.96)"/><path class="cls-1" d="M242.58,558.11h4.08v3.8h-4.08Zm0,5.91h4.08v15.67h-4.08Z" transform="translate(-181 -413.96)"/><path class="cls-1" d="M254.77,579.69h-4.08V564h3.79v2.22a6.1,6.1,0,0,1,1.75-2,3.39,3.39,0,0,1,1.77-.46,5.13,5.13,0,0,1,2.69.78l-1.28,3.58a3.56,3.56,0,0,0-1.91-.67,2.25,2.25,0,0,0-1.46.48,3.29,3.29,0,0,0-.93,1.72,24.73,24.73,0,0,0-.34,5.23Z" transform="translate(-181 -413.96)"/><path class="cls-1" d="M262.4,558.11h4.08v3.8H262.4Zm0,5.91h4.08v15.67H262.4Z" transform="translate(-181 -413.96)"/><path class="cls-1" d="M284.7,579.69h-4.09v-8a12.27,12.27,0,0,0-.26-3.27,2.22,2.22,0,0,0-.85-1.15,2.35,2.35,0,0,0-1.41-.42,3.23,3.23,0,0,0-1.89.59,2.94,2.94,0,0,0-1.15,1.56,13.59,13.59,0,0,0-.31,3.59v7.06h-4.09V564h3.79v2.29a6.21,6.21,0,0,1,5.08-2.56,6,6,0,0,1,2.46.49,4.1,4.1,0,0,1,1.69,1.26,4.58,4.58,0,0,1,.8,1.73,13,13,0,0,1,.23,2.77Z" transform="translate(-181 -413.96)"/><path class="cls-1" d="M288.42,580.72l4.66.55a1.7,1.7,0,0,0,.54,1.17,3.07,3.07,0,0,0,1.85.45,4.75,4.75,0,0,0,2.43-.49,2,2,0,0,0,.82-1.06,6.41,6.41,0,0,0,.19-1.93V577.1a5.57,5.57,0,0,1-4.67,2.59,5.68,5.68,0,0,1-4.94-2.65,9.1,9.1,0,0,1-1.43-5.23,8.68,8.68,0,0,1,1.87-6,6,6,0,0,1,4.66-2.07,5.67,5.67,0,0,1,4.74,2.53V564H303v14.06a14.2,14.2,0,0,1-.45,4.14,5.19,5.19,0,0,1-1.27,2.15,5.72,5.72,0,0,1-2.18,1.23,11.54,11.54,0,0,1-3.45.44q-3.94,0-5.59-1.36a4.29,4.29,0,0,1-1.65-3.45c0-.14,0-.31,0-.51m3.64-9.16a5.63,5.63,0,0,0,1,3.63,3,3,0,0,0,2.35,1.14,3.25,3.25,0,0,0,2.55-1.18,5.14,5.14,0,0,0,1-3.49,5.42,5.42,0,0,0-1-3.59,3.16,3.16,0,0,0-2.51-1.18,3,3,0,0,0-2.43,1.16,5.39,5.39,0,0,0-1,3.51" transform="translate(-181 -413.96)"/><rect class="cls-1" x="134.17" y="144.15" width="4.27" height="21.58"/><path class="cls-1" d="M337.51,579.69h-4.08v-8a12.73,12.73,0,0,0-.26-3.27,2.27,2.27,0,0,0-.85-1.15,2.35,2.35,0,0,0-1.41-.42,3.24,3.24,0,0,0-1.9.59,3,3,0,0,0-1.15,1.56,13.59,13.59,0,0,0-.31,3.59v7.06h-4.08V564h3.79v2.29a6.18,6.18,0,0,1,5.07-2.56,6,6,0,0,1,2.47.49,4.17,4.17,0,0,1,1.69,1.26,4.58,4.58,0,0,1,.8,1.73,13.09,13.09,0,0,1,.22,2.77Z" transform="translate(-181 -413.96)"/><path class="cls-1" d="M355.66,579.69h-4.08v-8a12.27,12.27,0,0,0-.26-3.27,2.27,2.27,0,0,0-.85-1.15,2.35,2.35,0,0,0-1.41-.42,3.23,3.23,0,0,0-1.89.59A3,3,0,0,0,346,569a13.72,13.72,0,0,0-.3,3.59v7.06h-4.09V564h3.79v2.29a6.2,6.2,0,0,1,5.08-2.56,6,6,0,0,1,2.46.49,4.17,4.17,0,0,1,1.69,1.26,4.58,4.58,0,0,1,.8,1.73,13.09,13.09,0,0,1,.22,2.77Z" transform="translate(-181 -413.96)"/><path class="cls-1" d="M358.85,571.69a8.48,8.48,0,0,1,1-4,6.87,6.87,0,0,1,2.83-2.94,8.31,8.31,0,0,1,4.1-1,7.62,7.62,0,0,1,5.73,2.3,8.73,8.73,0,0,1,0,11.69,7.53,7.53,0,0,1-5.67,2.33,8.81,8.81,0,0,1-4-1,6.57,6.57,0,0,1-2.92-2.84,9.56,9.56,0,0,1-1-4.57m4.18.22a5.19,5.19,0,0,0,1.09,3.56,3.52,3.52,0,0,0,5.36,0,5.29,5.29,0,0,0,1.08-3.59,5.21,5.21,0,0,0-1.08-3.53,3.52,3.52,0,0,0-5.36,0,5.19,5.19,0,0,0-1.09,3.56" transform="translate(-181 -413.96)"/><path class="cls-1" d="M382.21,579.69,376,564h4.27l2.9,8,.84,2.67c.23-.68.36-1.12.42-1.34.14-.44.29-.89.44-1.33l2.93-8H392l-6.11,15.67Z" transform="translate(-181 -413.96)"/><path class="cls-1" d="M397.56,568.9l-3.69-.65a5.89,5.89,0,0,1,2.14-3.4,7.69,7.69,0,0,1,4.51-1.1,9.5,9.5,0,0,1,4.05.66,4,4,0,0,1,1.87,1.65,8.51,8.51,0,0,1,.55,3.7l-.05,4.81a17.07,17.07,0,0,0,.19,3,9.18,9.18,0,0,0,.73,2.09h-4.08c-.1-.27-.23-.67-.39-1.21-.06-.24-.12-.4-.14-.48a7.37,7.37,0,0,1-2.22,1.56,6.24,6.24,0,0,1-2.52.51,5.16,5.16,0,0,1-3.72-1.3,4.37,4.37,0,0,1-1.36-3.3,4.54,4.54,0,0,1,.62-2.36,4.09,4.09,0,0,1,1.74-1.58,13,13,0,0,1,3.23-1,22.56,22.56,0,0,0,3.93-1v-.42a2.24,2.24,0,0,0-.57-1.72,3.36,3.36,0,0,0-2.16-.51,2.75,2.75,0,0,0-1.68.44,3.16,3.16,0,0,0-1,1.56m5.39,3.37c-.51.17-1.33.37-2.45.62a7.45,7.45,0,0,0-2.2.71,1.73,1.73,0,0,0-.79,1.44,2,2,0,0,0,.64,1.48,2.15,2.15,0,0,0,1.6.63,3.4,3.4,0,0,0,2.08-.73,2.54,2.54,0,0,0,1-1.35,7.88,7.88,0,0,0,.16-2Z" transform="translate(-181 -413.96)"/><path class="cls-1" d="M418.12,564v3.31h-2.77v6.35a16.59,16.59,0,0,0,.08,2.24.94.94,0,0,0,.37.53,1.13,1.13,0,0,0,.69.21,5.48,5.48,0,0,0,1.66-.4l.27,3.2a8,8,0,0,1-3.2.61,5,5,0,0,1-2-.37,2.86,2.86,0,0,1-1.28-1,3.9,3.9,0,0,1-.57-1.62,20.1,20.1,0,0,1-.13-2.93v-6.84h-1.89V564h1.89v-3.09l4.08-2.44V564Z" transform="translate(-181 -413.96)"/><path class="cls-1" d="M420.87,558.11H425v3.8h-4.09Zm0,5.91H425v15.67h-4.09Z" transform="translate(-181 -413.96)"/><path class="cls-1" d="M428.21,571.69a8.59,8.59,0,0,1,1-4,6.89,6.89,0,0,1,2.84-2.94,8.31,8.31,0,0,1,4.1-1,7.58,7.58,0,0,1,5.72,2.3,8.72,8.72,0,0,1,0,11.69,7.53,7.53,0,0,1-5.67,2.33,8.78,8.78,0,0,1-4-1,6.6,6.6,0,0,1-2.93-2.84,9.68,9.68,0,0,1-1-4.57m4.18.22a5.19,5.19,0,0,0,1.09,3.56,3.51,3.51,0,0,0,5.35,0,5.29,5.29,0,0,0,1.09-3.59,5.21,5.21,0,0,0-1.09-3.53,3.39,3.39,0,0,0-2.67-1.24,3.43,3.43,0,0,0-2.68,1.24,5.19,5.19,0,0,0-1.09,3.56" transform="translate(-181 -413.96)"/><path class="cls-1" d="M461.32,579.69h-4.08v-8a12.27,12.27,0,0,0-.26-3.27,2.27,2.27,0,0,0-.85-1.15,2.33,2.33,0,0,0-1.41-.42,3.21,3.21,0,0,0-1.89.59,2.89,2.89,0,0,0-1.15,1.56,13.47,13.47,0,0,0-.32,3.59v7.06h-4.08V564h3.79v2.29a6.2,6.2,0,0,1,5.08-2.56,6,6,0,0,1,2.46.49,4.1,4.1,0,0,1,1.69,1.26,4.58,4.58,0,0,1,.8,1.73,13.09,13.09,0,0,1,.22,2.77Z" transform="translate(-181 -413.96)"/><path class="cls-1" d="M490.3,579.7V558.11h6.89a24.16,24.16,0,0,1,5.1.33,5.45,5.45,0,0,1,3,2.11,6.7,6.7,0,0,1,1.24,4.2,7.22,7.22,0,0,1-.71,3.35,6,6,0,0,1-1.81,2.13,6.28,6.28,0,0,1-2.23,1,23.68,23.68,0,0,1-4.45.31h-2.8v8.14Zm4.28-18v6.19h2.35a10.72,10.72,0,0,0,3.4-.35,2.74,2.74,0,0,0,1.34-1.07,2.9,2.9,0,0,0,.49-1.69,2.87,2.87,0,0,0-.68-2,3,3,0,0,0-1.73-1,20.17,20.17,0,0,0-3.1-.15Z" transform="translate(-181 -413.96)"/><path class="cls-1" d="M519,574.76l4.09.71a6.71,6.71,0,0,1-2.48,3.42,7.21,7.21,0,0,1-4.23,1.19c-2.68,0-4.67-.89-6-2.67a8.92,8.92,0,0,1-1.53-5.38,8.7,8.7,0,0,1,2-6.08,6.53,6.53,0,0,1,5.06-2.2,6.82,6.82,0,0,1,5.42,2.29c1.33,1.54,2,3.88,1.9,7H513a4.32,4.32,0,0,0,1,2.88,3.07,3.07,0,0,0,2.35,1,2.49,2.49,0,0,0,1.61-.52,3.32,3.32,0,0,0,1-1.7m.25-4.23a4,4,0,0,0-.92-2.71,2.92,2.92,0,0,0-4.32,0,3.8,3.8,0,0,0-.86,2.66Z" transform="translate(-181 -413.96)"/><path class="cls-1" d="M530.49,579.69h-4.08V564h3.79v2.22a6.1,6.1,0,0,1,1.75-2,3.41,3.41,0,0,1,1.77-.46,5.13,5.13,0,0,1,2.69.78l-1.28,3.58a3.56,3.56,0,0,0-1.92-.67,2.24,2.24,0,0,0-1.45.48,3.29,3.29,0,0,0-.93,1.72,24.73,24.73,0,0,0-.34,5.23Z" transform="translate(-181 -413.96)"/><path class="cls-1" d="M536.71,575.3l4.08-.65a3,3,0,0,0,1.06,1.82,3.53,3.53,0,0,0,2.24.62,4,4,0,0,0,2.38-.59,1.31,1.31,0,0,0,.54-1.11,1.12,1.12,0,0,0-.29-.78,3.26,3.26,0,0,0-1.37-.55q-5-1.11-6.27-2a4,4,0,0,1-1.84-3.51,4.37,4.37,0,0,1,1.58-3.41,7.34,7.34,0,0,1,4.91-1.38,8.5,8.5,0,0,1,4.7,1,5.32,5.32,0,0,1,2.12,3.08l-3.83.71a2.49,2.49,0,0,0-.94-1.41,3.35,3.35,0,0,0-2-.49,4.29,4.29,0,0,0-2.3.46,1,1,0,0,0-.47.83.92.92,0,0,0,.41.76,14.84,14.84,0,0,0,3.81,1.17,11.34,11.34,0,0,1,4.56,1.84,3.88,3.88,0,0,1,1.28,3.09,4.78,4.78,0,0,1-1.77,3.7,7.74,7.74,0,0,1-5.23,1.54,8.56,8.56,0,0,1-5-1.28,5.94,5.94,0,0,1-2.39-3.49" transform="translate(-181 -413.96)"/><path class="cls-1" d="M554.65,558.11h4.07v3.8h-4.07Zm0,5.91h4.07v15.67h-4.07Z" transform="translate(-181 -413.96)"/><path class="cls-1" d="M561.49,575.3l4.08-.65a3,3,0,0,0,1.06,1.82,3.55,3.55,0,0,0,2.24.62,4,4,0,0,0,2.38-.59,1.31,1.31,0,0,0,.54-1.11,1.12,1.12,0,0,0-.29-.78,3.2,3.2,0,0,0-1.37-.55q-4.95-1.11-6.27-2a4,4,0,0,1-1.84-3.51,4.34,4.34,0,0,1,1.59-3.41,7.32,7.32,0,0,1,4.91-1.38,8.52,8.52,0,0,1,4.7,1,5.36,5.36,0,0,1,2.12,3.08l-3.84.71a2.49,2.49,0,0,0-.94-1.41,3.35,3.35,0,0,0-2-.49,4.33,4.33,0,0,0-2.31.46,1,1,0,0,0-.46.83.91.91,0,0,0,.4.76A14.84,14.84,0,0,0,570,569.9a11.46,11.46,0,0,1,4.57,1.84,3.88,3.88,0,0,1,1.27,3.09,4.8,4.8,0,0,1-1.76,3.7,7.79,7.79,0,0,1-5.24,1.54,8.51,8.51,0,0,1-5-1.28,5.87,5.87,0,0,1-2.4-3.49" transform="translate(-181 -413.96)"/><path class="cls-1" d="M586.57,564v3.31H583.8v6.35a16.59,16.59,0,0,0,.08,2.24.93.93,0,0,0,.36.53,1.18,1.18,0,0,0,.7.21,5.44,5.44,0,0,0,1.65-.4l.27,3.2a7.89,7.89,0,0,1-3.19.61,4.93,4.93,0,0,1-2-.37,2.84,2.84,0,0,1-1.29-1,3.76,3.76,0,0,1-.57-1.62,20.1,20.1,0,0,1-.13-2.93v-6.84h-1.9V564h1.9v-3.09l4.08-2.44V564Z" transform="translate(-181 -413.96)"/><path class="cls-1" d="M598.26,574.76l4.08.71a6.64,6.64,0,0,1-2.47,3.42,7.21,7.21,0,0,1-4.23,1.19,6.86,6.86,0,0,1-6-2.67,9,9,0,0,1-1.53-5.38,8.66,8.66,0,0,1,2-6.08,6.51,6.51,0,0,1,5.06-2.2,6.82,6.82,0,0,1,5.42,2.29c1.32,1.54,2,3.88,1.9,7H592.33a4.28,4.28,0,0,0,1,2.88,3.07,3.07,0,0,0,2.35,1,2.51,2.51,0,0,0,1.61-.52,3.32,3.32,0,0,0,1-1.7m.25-4.23a4,4,0,0,0-.92-2.71,2.92,2.92,0,0,0-4.32,0,3.81,3.81,0,0,0-.87,2.66Z" transform="translate(-181 -413.96)"/><path class="cls-1" d="M619.89,579.69h-4.08v-8a12.27,12.27,0,0,0-.26-3.27,2.33,2.33,0,0,0-.85-1.15,2.35,2.35,0,0,0-1.41-.42,3.26,3.26,0,0,0-1.9.59,3,3,0,0,0-1.15,1.56,13.59,13.59,0,0,0-.31,3.59v7.06h-4.08V564h3.79v2.29a6.19,6.19,0,0,1,5.07-2.56,5.94,5.94,0,0,1,2.46.49,4.14,4.14,0,0,1,1.7,1.26,4.73,4.73,0,0,1,.8,1.73,13.09,13.09,0,0,1,.22,2.77Z" transform="translate(-181 -413.96)"/><path class="cls-1" d="M631.14,564v3.31h-2.77v6.35a14.23,14.23,0,0,0,.09,2.24.88.88,0,0,0,.36.53,1.14,1.14,0,0,0,.7.21,5.57,5.57,0,0,0,1.65-.4l.26,3.2a7.83,7.83,0,0,1-3.19.61,5,5,0,0,1-2-.37,2.86,2.86,0,0,1-1.28-1,3.9,3.9,0,0,1-.57-1.62,20.1,20.1,0,0,1-.13-2.93v-6.84H622.4V564h1.89v-3.09l4.08-2.44V564Z" transform="translate(-181 -413.96)"/><path class="cls-1" d="M642.25,579.7V558.11h6.88a24.28,24.28,0,0,1,5.11.33,5.58,5.58,0,0,1,3.06,2.11,6.82,6.82,0,0,1,1.22,4.2,7.22,7.22,0,0,1-.7,3.35,6,6,0,0,1-1.81,2.13,6.36,6.36,0,0,1-2.23,1,23.8,23.8,0,0,1-4.46.31h-2.79v8.14Zm4.28-18v6.19h2.35a10.76,10.76,0,0,0,3.4-.35,2.78,2.78,0,0,0,1.34-1.07,2.89,2.89,0,0,0,.48-1.69,2.86,2.86,0,0,0-.67-2,3,3,0,0,0-1.74-1,19.92,19.92,0,0,0-3.09-.15Z" transform="translate(-181 -413.96)"/><path class="cls-1" d="M670.92,574.76l4.08.71a6.71,6.71,0,0,1-2.48,3.42,7.21,7.21,0,0,1-4.23,1.19,6.86,6.86,0,0,1-6-2.67,9.05,9.05,0,0,1-1.52-5.38,8.66,8.66,0,0,1,2-6.08,6.53,6.53,0,0,1,5.06-2.2,6.82,6.82,0,0,1,5.42,2.29c1.32,1.54,2,3.88,1.9,7H665a4.27,4.27,0,0,0,1,2.88,3.07,3.07,0,0,0,2.35,1,2.47,2.47,0,0,0,1.61-.52,3.4,3.4,0,0,0,1-1.7m.24-4.23a4,4,0,0,0-.92-2.71,2.92,2.92,0,0,0-4.32,0,3.8,3.8,0,0,0-.86,2.66Z" transform="translate(-181 -413.96)"/><path class="cls-1" d="M682.43,579.69h-4.08V564h3.79v2.22a6.1,6.1,0,0,1,1.76-2,3.36,3.36,0,0,1,1.77-.46,5.13,5.13,0,0,1,2.69.78l-1.28,3.58a3.56,3.56,0,0,0-1.91-.67,2.25,2.25,0,0,0-1.46.48,3.16,3.16,0,0,0-.93,1.72,24.5,24.5,0,0,0-.35,5.23Z" transform="translate(-181 -413.96)"/><path class="cls-1" d="M688.31,564h2.29v-1.17a8,8,0,0,1,.41-2.93,3.31,3.31,0,0,1,1.54-1.58,5.84,5.84,0,0,1,2.83-.61,11.42,11.42,0,0,1,3.43.53l-.51,2.85a8.24,8.24,0,0,0-1.92-.23,1.71,1.71,0,0,0-1.3.42,2.37,2.37,0,0,0-.4,1.62V564h3.06v3.25h-3.06v12.42H690.6V567.27h-2.29Z" transform="translate(-181 -413.96)"/><path class="cls-1" d="M708.91,574.76l4.07.71a6.64,6.64,0,0,1-2.47,3.42,7.22,7.22,0,0,1-4.24,1.19,6.85,6.85,0,0,1-5.95-2.67A9,9,0,0,1,698.8,572a8.66,8.66,0,0,1,2-6.08,6.53,6.53,0,0,1,5.06-2.2,6.8,6.8,0,0,1,5.41,2.29c1.33,1.54,2,3.88,1.91,7H703a4.22,4.22,0,0,0,1,2.88,3.07,3.07,0,0,0,2.35,1,2.51,2.51,0,0,0,1.61-.52,3.4,3.4,0,0,0,1-1.7m.23-4.23a3.94,3.94,0,0,0-.91-2.71,2.92,2.92,0,0,0-4.32,0,3.76,3.76,0,0,0-.86,2.66Z" transform="translate(-181 -413.96)"/><path class="cls-1" d="M730,568.69l-4,.75a3,3,0,0,0-.93-1.82,2.76,2.76,0,0,0-1.86-.61,3,3,0,0,0-2.43,1.06,5.49,5.49,0,0,0-.91,3.57,6.39,6.39,0,0,0,.92,3.92,3,3,0,0,0,2.49,1.15,2.67,2.67,0,0,0,1.91-.69,4.09,4.09,0,0,0,1-2.34l4,.7a6.58,6.58,0,0,1-7.13,5.69,7,7,0,0,1-5.39-2.16,10,10,0,0,1,0-12,7.09,7.09,0,0,1,5.45-2.16,7.44,7.44,0,0,1,4.48,1.22,6.71,6.71,0,0,1,2.39,3.72" transform="translate(-181 -413.96)"/><path class="cls-1" d="M740.16,564v3.31h-2.77v6.35a19.91,19.91,0,0,0,.07,2.24.91.91,0,0,0,.38.53,1.09,1.09,0,0,0,.69.21,5.44,5.44,0,0,0,1.65-.4l.27,3.2a7.93,7.93,0,0,1-3.19.61,5,5,0,0,1-2-.37,2.89,2.89,0,0,1-1.29-1,4,4,0,0,1-.57-1.62,22.31,22.31,0,0,1-.12-2.93v-6.84h-1.9V564h1.9v-3.09l4.08-2.44V564Z" transform="translate(-181 -413.96)"/><path class="cls-1" d="M742.91,558.11H747v3.8h-4.08Zm0,5.91H747v15.67h-4.08Z" transform="translate(-181 -413.96)"/><path class="cls-1" d="M750.25,571.69a8.59,8.59,0,0,1,1-4,6.89,6.89,0,0,1,2.84-2.94,8.27,8.27,0,0,1,4.09-1,7.62,7.62,0,0,1,5.73,2.3,8.75,8.75,0,0,1,0,11.69,7.55,7.55,0,0,1-5.68,2.33,8.77,8.77,0,0,1-4-1,6.6,6.6,0,0,1-2.93-2.84,9.68,9.68,0,0,1-1-4.57m4.18.22a5.19,5.19,0,0,0,1.08,3.56,3.52,3.52,0,0,0,5.36,0,5.29,5.29,0,0,0,1.08-3.59,5.21,5.21,0,0,0-1.08-3.53,3.52,3.52,0,0,0-5.36,0,5.19,5.19,0,0,0-1.08,3.56" transform="translate(-181 -413.96)"/><path class="cls-1" d="M783.36,579.69h-4.08v-8a12.27,12.27,0,0,0-.26-3.27,2.22,2.22,0,0,0-.85-1.15,2.35,2.35,0,0,0-1.41-.42,3.23,3.23,0,0,0-1.89.59,3,3,0,0,0-1.16,1.56,13.59,13.59,0,0,0-.31,3.59v7.06h-4.08V564h3.79v2.29a6.21,6.21,0,0,1,5.07-2.56,6.05,6.05,0,0,1,2.47.49,4.17,4.17,0,0,1,1.69,1.26,4.73,4.73,0,0,1,.8,1.73,13.09,13.09,0,0,1,.22,2.77Z" transform="translate(-181 -413.96)"/><path class="cls-1" d="M480.93,570.73a4.4,4.4,0,1,1-4.39-4.39,4.39,4.39,0,0,1,4.39,4.39" transform="translate(-181 -413.96)"/></svg>