<svg id="Layer_1" data-name="Layer 1" xmlns="http://www.w3.org/2000/svg" viewBox="0 0 638 215.3"><defs><style>.cls-1{fill:#4d4d4d;}.cls-1,.cls-2,.cls-3,.cls-4,.cls-5{fill-rule:evenodd;}.cls-2{fill:#fd1814;}.cls-3{fill:#3ea639;}.cls-4{fill:#0a55a3;}.cls-5{fill:#ffe812;}</style></defs><title>Google Logo Vector</title><path class="cls-1" d="M801.9,442.85h4a.84.84,0,0,1,.06.14c.65,1.42,1.3,2.82,1.89,4.25.65,1.59,1.23,3.21,1.93,4.79a.39.39,0,0,1,.06.15c.51-1.16,1.31-3,1.83-4.2s1-2.17,1.43-3.24c.19-.42.22-.5.22-.65,0-.37-.37-.37-.7-.37l-1.45.07,1.45-.94h5.33l-.38.36a1.43,1.43,0,0,0-.59,1.28,5.92,5.92,0,0,0,0,.71c.1,1,.19,2.09.27,3.13a37.79,37.79,0,0,0,.5,4.11,2.74,2.74,0,0,0,1.24,2.11,11.74,11.74,0,0,1-2.36.24,2.54,2.54,0,0,1-1.57-.42c-.68-.54-.77-1.38-.89-2.89-.1-1-.2-2.05-.29-3.08s-.09-2-.19-2.94l0-.19-.1.21c-.58,1.26-1.11,2.55-1.67,3.81a42.17,42.17,0,0,0-1.67,4l.18.5c-.48.11-2.37.74-3.07,1-.53-1.48-2.4-6.28-3.89-9.56q-.23,2.09-.42,4.17c0,.46-.31,3.56-.31,3.85s.08.46.73.53l1.46.21-.85.52H801l.44-.52a1.26,1.26,0,0,0,.21-.36,7,7,0,0,0,.22-1.39c.11-1,.25-2,.36-3,.07-.63.38-3.71.46-4.43a4.21,4.21,0,0,0,0-.51c0-.43-.17-.65-.66-.65l-1.54,0,1.39-.86Z" transform="translate(-181 -392.35)"/><path class="cls-1" d="M801.17,442.85l-.73,1.68-.74.34c0-.17.18-.78.18-.85,0-.38-.45-.4-.91-.4l-2.31,0c-.2,6.46-.2,7-.2,7.9,0,.47,0,.85,0,1.41,0,.72.29.87,1,.92L799,454l-1.08.54h-5.52l.37-.54c.36-.54.41-.62.41-1s0-2.07,0-2.45c0-.7,0-1.41,0-2.11.06-1.42.14-2.85.14-4.26,0-.23,0-.49,0-.56h-2c-1,0-1,.07-1.57.89l-.88.34.88-2Z" transform="translate(-181 -392.35)"/><path class="cls-2" d="M779.71,537.44c-2.33,1.27-4.66,2.76-7,3.82a49.4,49.4,0,0,1-20.58,4c-6.79,0-17.4-.43-28.22-8.27-15-10.61-21.63-28.85-21.63-44.76,0-32.88,26.73-49,48.58-49a41.29,41.29,0,0,1,21.85,5.94c10.6,7,13.35,16.12,14.84,21l-49.85,20.15-16.33,1.27c5.3,26.94,23.54,42.64,43.7,42.64,10.81,0,18.67-3.82,25.88-7.43l-11.25,10.61Zm-19.94-63.21c4-1.49,6.15-2.76,6.15-5.73,0-8.48-9.54-18.24-21-18.24-8.48,0-24.39,6.57-24.39,29.48,0,3.61.42,7.43.64,11.24l38.6-16.75Z" transform="translate(-181 -392.35)"/><path class="cls-3" d="M697.19,542.1H659.65c4.88-6.36,5.73-7,5.73-11.24V496.29c0-16.55.21-40.09.85-62.15.21-10.82,1.06-24.4,1.27-34.16H651l15.92-7.63h30.32c-6.57,3.82-8.69,5.09-9.54,12.52-1.69,16.33-1.91,42.2-1.91,72.33v49c0,8.27,1.49,9.54,8.49,10.18,3.61.42,7.21.64,10.82,1.06l-7.86,4.66Z" transform="translate(-181 -392.35)"/><path class="cls-4" d="M627.62,453.65c4.88,4,15.06,12.52,15.06,28.64,0,15.7-8.91,23.12-17.81,30.12-2.76,2.76-5.94,5.73-5.94,10.39s3.18,7.21,5.51,9.12l7.64,5.94c9.33,7.85,17.81,15.07,17.81,29.7,0,19.94-19.3,40.09-55.79,40.09-30.75,0-45.6-14.64-45.6-30.33,0-7.64,3.82-18.46,16.34-25.88,13.15-8.06,31-9.12,40.51-9.76-3-3.82-6.36-7.85-6.36-14.42,0-3.61,1.06-5.73,2.12-8.27-2.34.21-4.67.42-6.79.42-22.48,0-35.21-16.76-35.21-33.3a38.15,38.15,0,0,1,13.57-28.43c12.1-10,26.52-11.66,38-11.66h43.7l-13.58,7.63Zm-15.06,94.18a34.73,34.73,0,0,0-4.87-.21c-1.91,0-13.37.42-22.28,3.39-4.67,1.7-18.24,6.79-18.24,21.85s14.63,25.88,37.33,25.88c20.37,0,31.18-9.76,31.18-22.91,0-10.82-7-16.54-23.12-28Zm6.16-40.3c4.87-4.88,5.3-11.67,5.3-15.48,0-15.28-9.12-39-26.73-39a19.82,19.82,0,0,0-14.85,7c-3.61,4.45-4.67,10.18-4.67,15.69,0,14.21,8.28,37.76,26.52,37.76a21.75,21.75,0,0,0,14.43-5.94Z" transform="translate(-181 -392.35)"/><path class="cls-5" d="M496.11,544.86c-33.73,0-51.76-26.3-51.76-50.05,0-27.79,22.7-51.55,54.94-51.55,31.18,0,50.7,24.39,50.7,50.06,0,25-19.31,51.54-53.88,51.54Zm26.51-17.18c5.09-6.79,6.37-15.27,6.37-23.54,0-18.67-8.92-54.31-35.22-54.31a29.57,29.57,0,0,0-19.09,7.22c-8.27,7.42-9.75,16.75-9.75,25.88,0,21,10.39,55.57,36.05,55.57a27.12,27.12,0,0,0,21.64-10.82Z" transform="translate(-181 -392.35)"/><path class="cls-2" d="M383.26,544.86c-33.73,0-51.76-26.3-51.76-50.05,0-27.79,22.7-51.55,54.94-51.55,31.18,0,50.7,24.39,50.7,50.06,0,25-19.3,51.54-53.88,51.54Zm26.51-17.18c5.1-6.79,6.37-15.27,6.37-23.54,0-18.67-8.91-54.31-35.21-54.31a29.6,29.6,0,0,0-19.1,7.22c-8.27,7.42-9.75,16.75-9.75,25.88,0,21,10.39,55.57,36.06,55.57a27.1,27.1,0,0,0,21.63-10.82Z" transform="translate(-181 -392.35)"/><path class="cls-4" d="M318,537.46,289.58,544c-11.54,1.79-21.88,3.38-32.81,3.38-54.89,0-75.77-40.37-75.77-72,0-38.58,29.63-74.37,80.34-74.37a115,115,0,0,1,30.43,4.17c14.91,4.18,21.87,9.35,26.25,12.34l-16.51,15.71-7,1.59,5-8c-6.76-6.56-19.09-18.69-42.55-18.69-31.43,0-55.09,23.86-55.09,58.67,0,37.38,27.05,72.58,70.4,72.58,12.73,0,19.29-2.59,25.25-5v-32l-30,1.59,15.9-8.55h42.16l-5.16,5a4.63,4.63,0,0,0-2,3.18c-.19,1.79-.39,7.56-.39,9.55v24.26Z" transform="translate(-181 -392.35)"/></svg>