<svg id="Layer_1" data-name="Layer 1" xmlns="http://www.w3.org/2000/svg" viewBox="0 0 638 226.13"><defs><style>.cls-1{fill:#01a0c6;fill-rule:evenodd;}</style></defs><title>Honor Logo Vector</title><path class="cls-1" d="M615.52,440.11h65.59A26.92,26.92,0,0,1,708,466.94v49.81a26.94,26.94,0,0,1-26.84,26.84H615.52a26.92,26.92,0,0,1-26.84-26.84V466.94a26.9,26.9,0,0,1,26.84-26.83Zm.74,18.78h63.59A9.14,9.14,0,0,1,689,468v47.53a9.11,9.11,0,0,1-9.1,9.09H616.26a9.1,9.1,0,0,1-9.07-9.09V468a9.13,9.13,0,0,1,9.07-9.09ZM346.71,440.11h65.56a26.9,26.9,0,0,1,26.84,26.83v49.81a26.92,26.92,0,0,1-26.84,26.84H346.71a26.92,26.92,0,0,1-26.84-26.84V466.94a26.9,26.9,0,0,1,26.84-26.83Zm.74,18.78H411a9.12,9.12,0,0,1,9.07,9.09v47.53A9.09,9.09,0,0,1,411,524.6H347.45a9.1,9.1,0,0,1-9.09-9.09V468a9.13,9.13,0,0,1,9.09-9.09Zm406.76-18.78h57.34c10.71,0,9.31,18.78-.63,18.78H755a9.12,9.12,0,0,0-9.06,9.09v66.89c-.6,11.85-18.68,11.08-18.49,0V466.94a26.9,26.9,0,0,1,26.81-26.83Zm-286.23,0H541.9a26.9,26.9,0,0,1,26.83,26.83v66.93c0,13.07-19,13.78-19,.15V468a9.13,9.13,0,0,0-9.08-9.09H468.13c-13.35.63-12.21-18.78-.15-18.78Zm-.28,30.2h0a9.65,9.65,0,0,1,9.62,9.62v54.2a9.64,9.64,0,0,1-9.62,9.62h0a9.66,9.66,0,0,1-9.62-9.62v-54.2a9.68,9.68,0,0,1,9.62-9.62Zm-277.07,0h0a9.66,9.66,0,0,1,9.62,9.62v54.2a9.65,9.65,0,0,1-9.62,9.62h0a9.64,9.64,0,0,1-9.63-9.62v-54.2a9.65,9.65,0,0,1,9.63-9.62Zm14.21-30.2h67.27A26.89,26.89,0,0,1,299,466.94v66.93c0,13.07-19,13.78-19,.15V468a9.18,9.18,0,0,0-9.1-9.09l-67.67-.44c-15.17-1.2-21.28-14.57-21.49-25.91L181,395.2c-.08-4.56,4.31-8.26,9.63-8.26h0c5.29,0,9.62,3.7,9.62,8.26v39.43a5.54,5.54,0,0,0,4.59,5.48Z" transform="translate(-181 -386.94)"/><path class="cls-1" d="M181.22,564.8H197.7v6.12h-9.51v14.26h8.26v6.12h-8.26v21.76h-7V564.8Zm85.92,0h13.23v6h-6.25v42.24h-7V570.82h-6.25v-6Zm16.73,0h6.55V586h7.39V564.8h6.57v48.26h-6.57v-21.2h-7.39v21.2h-6.55V564.8Zm26.27,0h16.47v6.12h-9.49v14.26h8.24v6.12h-8.24v15.64h9.49v6.12H310.14V564.8Zm-101.92-.12h7.55a6.81,6.81,0,0,1,6.81,6.79v34.8a6.81,6.81,0,0,1-6.81,6.78h-7.55a6.81,6.81,0,0,1-6.81-6.78v-34.8a6.81,6.81,0,0,1,6.81-6.79Zm1.39,6.35h4.74a2,2,0,0,1,2,1.94v31.79a2,2,0,0,1-2,2h-4.74a2,2,0,0,1-2-2V573a2,2,0,0,1,2-1.94Zm18.68,42,0-47.91h13.36c2.58,0,6.5,1.15,6.5,5.85v16.64c0,2.63-1.85,4.28-3.43,5.58l4.12,19.54h-5.94l-4.4-19.08h-3.95v19.31l-6.23.07Zm6.35-41.93h3.91a2.82,2.82,0,0,1,2.82,2.8v11.46a2.83,2.83,0,0,1-2.82,2.84h-3.91v-17.1ZM341.23,613l0-47.91h13.39c.57,0,6,.48,6.2,5.85l.35,11.2c.08,2.85-.84,5.67-4.28,5.9,3.85-.07,4.57,3.08,4.55,6.09l0,13.93c-1,3-2.85,4.48-5.57,4.64l-14.56.3Zm6.35-21.87H352a3.2,3.2,0,0,1,3.19,3.19v9.46A3.2,3.2,0,0,1,352,607h-4.4V591.13Zm0-20.06h3.92a2.83,2.83,0,0,1,2.8,2.8v8.39a2.83,2.83,0,0,1-2.8,2.82h-3.92v-14ZM366.92,613l0-47.91h13.37c2.56,0,6.45,1.15,6.45,5.85v16.64c0,2.63-1.82,4.28-3.39,5.58l4.11,19.54h-6l-4.38-19.08h-3.92v19.31l-6.25.07Zm6.36-41.93h3.91a2.83,2.83,0,0,1,2.8,2.8v11.46a2.84,2.84,0,0,1-2.8,2.84h-3.91v-17.1ZM440,564.8h16.51v6.12H447v14.26h8.23v6.12H447v15.64h9.5v6.12H440V564.8Zm-42,.07h6.94a6.63,6.63,0,0,1,6.6,6.62v40.83a6,6,0,0,1,0,.72H405V595.61h-6.82L397.86,613h-6.43c0-.27,0-.47,0-.72V571.49a6.64,6.64,0,0,1,6.61-6.62Zm2.31,6.07h2.33a2.36,2.36,0,0,1,2.23,2.43v16h-6.82v-16a2.36,2.36,0,0,1,2.26-2.43Zm21.55,41.92h7.81l7.78-47.92H430.9l-5.18,34.85-5.2-34.72h-6.21l8.12,47.57-.57.22Z" transform="translate(-181 -386.94)"/></svg>