<?xml version="1.0" standalone="no"?>
<!DOCTYPE svg PUBLIC "-//W3C//DTD SVG 20010904//EN"
 "http://www.w3.org/TR/2001/REC-SVG-20010904/DTD/svg10.dtd">
<svg version="1.0" xmlns="http://www.w3.org/2000/svg"
 width="2250.000000pt" height="2250.000000pt" viewBox="0 0 2250.000000 2250.000000"
 preserveAspectRatio="xMidYMid meet">

<g transform="translate(0.000000,2250.000000) scale(0.100000,-0.100000)"
fill="#000000" stroke="none">
<path d="M18635 15056 c-322 -78 -462 -451 -267 -708 86 -114 204 -176 352
-185 146 -9 270 37 368 137 178 181 174 460 -8 634 -120 115 -287 161 -445
122z"/>
<path d="M3775 14976 c-221 -73 -346 -250 -332 -472 4 -72 11 -98 41 -158 140
-285 525 -351 756 -130 231 220 166 592 -127 732 -74 35 -84 37 -188 39 -71 2
-124 -2 -150 -11z"/>
<path d="M10015 14619 c-141 -21 -281 -123 -343 -249 -111 -229 -18 -492 216
-607 l76 -38 131 0 131 0 76 38 c142 70 237 196 258 344 43 307 -225 560 -545
512z"/>
<path d="M13205 14247 c-126 -33 -254 -136 -310 -251 -82 -168 -44 -378 93
-508 238 -227 623 -163 762 127 46 94 53 217 21 324 -39 128 -147 242 -280
292 -69 26 -213 34 -286 16z"/>
<path d="M6671 13874 c-218 -58 -366 -282 -332 -500 48 -308 387 -477 679
-339 228 108 322 385 206 606 -61 116 -181 210 -305 238 -63 15 -185 12 -248
-5z"/>
<path d="M15906 13879 c-68 -16 -173 -78 -226 -135 -28 -30 -65 -84 -83 -121
-30 -64 -32 -74 -32 -183 0 -111 1 -117 36 -191 166 -347 675 -353 848 -10
129 255 -14 563 -294 636 -64 16 -187 18 -249 4z"/>
<path d="M18540 13694 c-180 -33 -330 -100 -433 -194 -162 -149 -263 -362
-302 -640 -28 -205 -18 -636 21 -915 70 -494 213 -854 602 -1510 271 -457 404
-752 493 -1101 69 -272 83 -396 84 -744 0 -263 -2 -314 -18 -370 -49 -179
-135 -250 -302 -250 -150 0 -251 71 -297 208 -22 66 -22 74 -26 805 l-3 737
-275 0 -274 0 0 -738 c0 -445 4 -771 10 -822 61 -495 372 -749 890 -727 276
12 444 78 602 237 76 77 93 101 142 201 59 122 98 259 116 409 13 108 13 559
0 715 -55 653 -193 1042 -640 1810 -241 416 -332 598 -416 839 -102 293 -144
571 -145 971 -1 276 18 371 96 463 55 65 180 101 287 82 150 -28 224 -111 247
-283 7 -49 11 -319 11 -728 l0 -649 275 0 276 0 -4 758 c-4 812 -3 791 -56
946 -59 168 -198 328 -351 404 -136 67 -217 84 -415 87 -93 2 -181 1 -195 -1z"/>
<path d="M2920 10570 l0 -3060 305 0 305 0 2 1423 3 1422 363 3 362 2 0 -1425
0 -1425 310 0 310 0 0 3060 0 3060 -310 0 -310 0 0 -1360 0 -1360 -365 0 -365
0 0 1360 0 1360 -305 0 -305 0 0 -3060z"/>
<path d="M8710 10385 l0 -2875 275 0 275 0 0 981 c0 853 -16 2331 -35 3129 -3
140 -4 252 -1 250 2 -3 32 -244 66 -535 48 -415 470 -3649 495 -3792 l6 -33
274 0 c181 0 275 4 275 10 0 6 97 727 216 1603 119 875 247 1851 284 2167 62
523 68 565 69 460 0 -63 -8 -657 -19 -1320 -11 -663 -20 -1591 -20 -2062 l0
-858 280 0 280 0 0 2875 0 2875 -399 0 -399 0 -6 -27 c-13 -64 -321 -2483
-381 -2993 -100 -854 -152 -1247 -158 -1220 -3 14 -22 169 -42 345 -97 865
-180 1512 -336 2620 -93 666 -172 1225 -175 1243 l-6 32 -409 0 -409 0 0
-2875z"/>
<path d="M12960 12884 c0 -3 -173 -1210 -385 -2681 -212 -1471 -385 -2678
-385 -2684 0 -5 110 -9 279 -9 l279 0 6 28 c3 15 37 259 76 542 39 283 73 525
76 538 l4 22 349 0 349 0 6 -37 c9 -57 136 -1066 136 -1080 0 -10 65 -13 290
-13 160 0 290 2 290 4 0 9 -700 5301 -706 5339 l-6 37 -329 0 c-181 0 -329 -3
-329 -6z m449 -2529 c76 -643 136 -1173 134 -1177 -4 -8 -566 -11 -574 -3 -4
3 282 2347 292 2400 3 15 -1 49 148 -1220z"/>
<path d="M5842 10313 c3 -2133 4 -2220 22 -2283 105 -365 391 -571 831 -596
507 -30 902 227 1024 665 l26 96 3 2168 2 2167 -310 0 -310 0 0 -2139 0 -2139
-21 -68 c-17 -56 -31 -77 -77 -124 -69 -68 -128 -90 -242 -90 -135 0 -228 47
-285 145 -57 96 -55 -3 -55 2298 l0 2117 -305 0 -305 0 2 -2217z"/>
<path d="M15090 10020 l0 -2510 260 0 260 0 0 968 c0 547 -7 1225 -15 1562 -8
327 -12 596 -11 598 4 3 48 -173 492 -1990 l278 -1138 278 0 278 0 0 2510 0
2510 -261 0 -262 0 5 -1572 c2 -1021 1 -1559 -6 -1533 -5 22 -172 729 -371
1570 l-362 1530 -281 3 -282 2 0 -2510z"/>
</g>
</svg>
