<svg xmlns="http://www.w3.org/2000/svg" xmlns:xlink="http://www.w3.org/1999/xlink" viewBox="0 0 638 279.39"><defs><style>.cls-1{isolation:isolate;}.cls-2{fill:#970026;}.cls-3,.cls-6{mix-blend-mode:multiply;}.cls-3{fill:url(#radial-gradient);}.cls-4{fill:url(#linear-gradient);}.cls-5{fill:url(#linear-gradient-2);}.cls-6{fill:url(#linear-gradient-3);}.cls-7{fill:#464d52;}.cls-8{fill:#7d8286;}.cls-9{fill:#161c21;}.cls-10{fill:#a3a7aa;}.cls-11{fill:url(#linear-gradient-4);}.cls-12{fill:url(#linear-gradient-5);}.cls-13{fill:url(#linear-gradient-6);}.cls-14{fill:#343a40;}.cls-15{fill:#c0c3c5;}.cls-16{fill:url(#radial-gradient-2);}.cls-17{fill:url(#radial-gradient-3);}.cls-18{fill:#fff;}.cls-19{fill:#fefefe;}.cls-20{fill:#304251;}</style><radialGradient id="radial-gradient" cx="288.54" cy="468.9" r="116.76" gradientUnits="userSpaceOnUse"><stop offset="0.5" stop-color="#fefefe"/><stop offset="0.71" stop-color="#fcfcfc"/><stop offset="0.79" stop-color="#f5f5f5"/><stop offset="0.86" stop-color="#e8e9ea"/><stop offset="0.91" stop-color="#d7d8da"/><stop offset="0.96" stop-color="#c0c3c5"/><stop offset="1" stop-color="#a4a8ab"/><stop offset="1" stop-color="#a3a7aa"/></radialGradient><linearGradient id="linear-gradient" x1="539.42" y1="-437.22" x2="539.42" y2="-269.09" gradientTransform="translate(144.88 1087.03) rotate(-45)" gradientUnits="userSpaceOnUse"><stop offset="0" stop-color="#d98689"/><stop offset="1" stop-color="#970026"/></linearGradient><linearGradient id="linear-gradient-2" x1="217.65" y1="415.3" x2="354.37" y2="552.02" gradientUnits="userSpaceOnUse"><stop offset="0" stop-color="#ab273c"/><stop offset="1" stop-color="#970026"/></linearGradient><linearGradient id="linear-gradient-3" x1="217.65" y1="415.3" x2="354.37" y2="552.02" gradientUnits="userSpaceOnUse"><stop offset="0" stop-color="#fefefe"/><stop offset="1" stop-color="#979b9e"/></linearGradient><linearGradient id="linear-gradient-4" x1="246.82" y1="426.16" x2="267.47" y2="446.81" gradientUnits="userSpaceOnUse"><stop offset="0" stop-color="#a3a7aa"/><stop offset="1" stop-color="#161c21"/></linearGradient><linearGradient id="linear-gradient-5" x1="216.83" y1="413.01" x2="352.08" y2="548.26" xlink:href="#linear-gradient-4"/><linearGradient id="linear-gradient-6" x1="378.64" y1="472.22" x2="206.98" y2="472.22" xlink:href="#linear-gradient-4"/><radialGradient id="radial-gradient-2" cx="-110.97" cy="356.45" r="83.07" gradientTransform="translate(458.75 -316.26) scale(2 2)" gradientUnits="userSpaceOnUse"><stop offset="0.35" stop-color="#fefefe"/><stop offset="0.56" stop-color="#fbfcfc"/><stop offset="0.68" stop-color="#f3f4f4"/><stop offset="0.78" stop-color="#e5e6e7"/><stop offset="0.87" stop-color="#d1d3d4"/><stop offset="0.95" stop-color="#b7babc"/><stop offset="1" stop-color="#a3a7aa"/></radialGradient><radialGradient id="radial-gradient-3" cx="-103.6" cy="373.75" r="10.51" gradientTransform="translate(458.75 -316.26) scale(2 2)" gradientUnits="userSpaceOnUse"><stop offset="0.35" stop-color="#fefefe"/><stop offset="0.54" stop-color="#fafafa"/><stop offset="0.73" stop-color="#edeeef"/><stop offset="0.93" stop-color="#d9dadc"/><stop offset="1" stop-color="#cfd1d3"/></radialGradient></defs><title>LG Logo Vector</title><g class="cls-1"><g id="Layer_1" data-name="Layer 1"><path class="cls-2" d="M181,472.23A111.92,111.92,0,1,1,292.86,584.15,111.91,111.91,0,0,1,181,472.23Z" transform="translate(-181 -360.31)"/><path class="cls-3" d="M181,472.23A111.92,111.92,0,1,1,292.86,584.15,111.91,111.91,0,0,1,181,472.23Z" transform="translate(-181 -360.31)"/><path class="cls-4" d="M208.77,523.72c-32.83-32.83-29.06-89.82,8.35-127.24s94.46-41.26,127.29-8.42,29.06,89.83-8.42,127.31S241.6,556.56,208.77,523.72Z" transform="translate(-181 -360.31)"/><path class="cls-5" d="M300.86,424.5l-2.33-2.56-10.11,1.14-1.21,99.33s2.27,2.67,2.62,3.1a1.78,1.78,0,0,0,1.44.74H323a.88.88,0,0,0,1-.92v-9.09a2.62,2.62,0,0,0-.66-1.82l-2.53-3.15-19.3,2.12V426A2,2,0,0,0,300.86,424.5Zm-57.61,14.12A15.59,15.59,0,1,0,258.85,423,15.58,15.58,0,0,0,243.25,438.62Zm147.31,31.14c-.49-.5-2.87-3-2.87-3l-1.82,1.64H320l-1.56,9.46s1.94,2,2.42,2.48a2.76,2.76,0,0,0,1.91.88h55.69a83.83,83.83,0,1,1-83.56-90.33s5.35.07,5.87.05.69-.28.69-.71v-9.29a1.48,1.48,0,0,0-.51-1.15c-.35-.33-2.44-2.39-2.44-2.39l-3.63.59a96.73,96.73,0,1,0,96.71,96.71v-2.34A3.27,3.27,0,0,0,390.56,469.76Z" transform="translate(-181 -360.31)"/><path class="cls-6" d="M300.86,424.5l-2.33-2.56-10.11,1.14-1.21,99.33s2.27,2.67,2.62,3.1a1.78,1.78,0,0,0,1.44.74H323a.88.88,0,0,0,1-.92v-9.09a2.62,2.62,0,0,0-.66-1.82l-2.53-3.15-19.3,2.12V426A2,2,0,0,0,300.86,424.5Zm-57.61,14.12A15.59,15.59,0,1,0,258.85,423,15.58,15.58,0,0,0,243.25,438.62Zm147.31,31.14c-.49-.5-2.87-3-2.87-3l-1.82,1.64H320l-1.56,9.46s1.94,2,2.42,2.48a2.76,2.76,0,0,0,1.91.88h55.69a83.83,83.83,0,1,1-83.56-90.33s5.35.07,5.87.05.69-.28.69-.71v-9.29a1.48,1.48,0,0,0-.51-1.15c-.35-.33-2.44-2.39-2.44-2.39l-3.63.59a96.73,96.73,0,1,0,96.71,96.71v-2.34A3.27,3.27,0,0,0,390.56,469.76Z" transform="translate(-181 -360.31)"/><polygon class="cls-7" points="108.39 159.91 106.21 162.1 139.78 162.1 137.59 159.91 108.39 159.91"/><path class="cls-8" d="M318.59,513.47l2.19-2.2H298.53l-2.19,2.2Z" transform="translate(-181 -360.31)"/><polygon class="cls-8" points="108.39 63.81 115.34 63.81 117.53 61.63 106.21 61.63 108.39 63.81"/><path class="cls-9" d="M296.34,513.47l2.19-2.2V421.94h0l-2.19,2.18Z" transform="translate(-181 -360.31)"/><polygon class="cls-9" points="137.59 159.91 139.78 162.1 139.78 162.1 139.78 150.97 139.78 150.97 137.59 153.16 137.59 159.91"/><polygon class="cls-10" points="108.39 63.81 106.21 61.63 106.21 61.63 106.21 162.1 106.21 162.1 108.39 159.91 108.39 63.81"/><path class="cls-11" d="M242.52,436.51a14.62,14.62,0,1,0,14.63-14.62A14.61,14.61,0,0,0,242.52,436.51Zm27,0a12.44,12.44,0,1,1-12.42-12.43A12.41,12.41,0,0,1,269.57,436.51Z" transform="translate(-181 -360.31)"/><polygon class="cls-9" points="115.34 26.02 117.5 28.23 117.5 28.23 117.53 27.03 117.53 17.08 117.53 17.08 115.34 19.25 115.34 26.02"/><polygon class="cls-8" points="201.81 106.45 137.46 106.45 139.65 108.64 204.5 108.63 206.69 106.44 206.69 106.44 201.81 106.45"/><path class="cls-12" d="M385.5,472.2a92.64,92.64,0,1,1-92.69-92.69l3.53,0,2.19-2.16-5.72-.07a94.91,94.91,0,1,0,94.88,94.88v-5.45l-2.19,2.19Z" transform="translate(-181 -360.31)"/><path class="cls-13" d="M292.84,386.3A85.93,85.93,0,1,0,378.57,478l.07-1.86-2.11,0-.14,1.7a83.75,83.75,0,1,1-83.55-89.36l5.66.05-2.16-2.21Z" transform="translate(-181 -360.31)"/><path class="cls-14" d="M320.65,475.65l-2.19,2.2h57.92l2.26-2.2Z" transform="translate(-181 -360.31)"/><polygon class="cls-15" points="139.65 108.64 137.46 106.45 137.46 106.45 137.46 117.54 137.46 117.54 139.65 115.35 139.65 108.64"/><path class="cls-16" d="M288.4,423.13v98.09h31.19v-8.75H297.33V423.13Zm8.93-44.56c-1.17,0-3.4-.06-4.52-.06A93.71,93.71,0,1,0,386.5,472.2v-4.26H319.65v8.7h58c0,.2,0,1.12,0,1.3a84.95,84.95,0,1,1-84.74-90.65c1,0,3.42,0,4.49,0Z" transform="translate(-181 -360.31)"/><path class="cls-17" d="M257.15,449.88a13.4,13.4,0,1,0-13.44-13.37A13.41,13.41,0,0,0,257.15,449.88Z" transform="translate(-181 -360.31)"/><path class="cls-18" d="M259.57,425.5a13.32,13.32,0,0,1,8.17,2.85A13.37,13.37,0,1,0,248.93,447a13.16,13.16,0,0,1-2.8-8.08A13.43,13.43,0,0,1,259.57,425.5Z" transform="translate(-181 -360.31)"/><path class="cls-19" d="M297.33,378.57c-1.17,0-3.4-.06-4.52-.06a93.7,93.7,0,0,0-66.17,159.93c.56.57,1.15,1.11,1.73,1.66a93.08,93.08,0,0,1-25.87-64.62C202.5,424,239,381.13,297.33,378.57Z" transform="translate(-181 -360.31)"/><path class="cls-19" d="M297.34,512.47s6.41,1.87,22.25,1.87v-1.87Z" transform="translate(-181 -360.31)"/><path class="cls-19" d="M297.33,425.89v-2.76H288.4v98.09s2.77-14.94,2.77-95.33Z" transform="translate(-181 -360.31)"/><path class="cls-19" d="M386.5,467.94H319.65v8.7h2.42v-6.28C380.33,470.37,386.5,467.94,386.5,467.94Z" transform="translate(-181 -360.31)"/><path class="cls-19" d="M377.62,476.65c0,.2,0,1.12,0,1.3a84.92,84.92,0,0,1-166.5,17.15,86,86,0,0,0,83.25,63.07c42.66,0,81.94-33.41,84.39-81.52Z" transform="translate(-181 -360.31)"/><path class="cls-20" d="M460.79,405.65H500.3V505.93h58.64v33.49H460.79Z" transform="translate(-181 -360.31)"/><path class="cls-20" d="M661.17,526.08c-7,10.65-19.86,16.64-36,16.64-34.76,0-57.38-27.65-57.38-70.37,0-43.33,25.49-70,67.58-70,16.81,0,31.17,4.49,42.25,13,11.2,8.85,15.38,17.53,17.17,35.18h-41.3c-1.14-10.3-8.83-16.93-19-16.93-15.91,0-25.28,14.78-25.28,39.32,0,24.89,9.73,39.85,26,39.85,12.87,0,20.28-7.18,23.33-23.12H633V461.51h61.75v77.91H661.17Z" transform="translate(-181 -360.31)"/><path class="cls-20" d="M460.75,634.78V588.41a3.8,3.8,0,0,1,3.94-3.94,3.67,3.67,0,0,1,3.79,3.94v43.07h25.68a3.58,3.58,0,0,1,3.62,3.54,3.67,3.67,0,0,1-3.62,3.71H464.69A3.85,3.85,0,0,1,460.75,634.78Z" transform="translate(-181 -360.31)"/><path class="cls-20" d="M506,588.81a4.43,4.43,0,1,1-4.43,4.43A4.47,4.47,0,0,1,506,588.81Zm0,50.56a3.68,3.68,0,0,1-3.79-3.78V606.93a3.79,3.79,0,1,1,7.57,0v28.66A3.68,3.68,0,0,1,506,639.37Z" transform="translate(-181 -360.31)"/><path class="cls-20" d="M539.25,591.07H537c-4.1,0-6.44,1.53-6.44,6.84v5.88h8a3.14,3.14,0,1,1,0,6.28h-8v25.52a3.79,3.79,0,0,1-7.57,0V610.07h-4.75a3.14,3.14,0,1,1,0-6.28H523v-5.31c0-8.46,4.11-13.69,13.45-13.69h2.82a3.14,3.14,0,0,1,0,6.28Z" transform="translate(-181 -360.31)"/><path class="cls-20" d="M577.41,621.34c0,1.29-.72,2.58-2.9,2.58H550.44c.4,5.55,4.19,9.74,10.87,9.74,4.18,0,6.68-1.45,9.34-3.95a3.7,3.7,0,0,1,2.49-1.21,3,3,0,0,1,3.14,3.14,3.38,3.38,0,0,1-1,2.18c-3.06,3.54-8.54,5.87-14.33,5.87-12,0-18.36-8.37-18.36-18.43,0-10.55,7.65-18.44,18-18.44C570.81,602.82,577.41,611,577.41,621.34Zm-16.75-12.48a10,10,0,0,0-10.06,8.94h19.81C569.76,613,566.14,608.86,560.66,608.86Z" transform="translate(-181 -360.31)"/><path class="cls-20" d="M587.88,604.67c-.65,1.21-1.45,2.42-3.31,2.42-2.17,0-3.3-1.37-3.3-2.66a5.69,5.69,0,0,1,.73-2.33,25.1,25.1,0,0,0,2.09-9.9v-4.27a3.31,3.31,0,1,1,6.6,0v3.22A29.84,29.84,0,0,1,587.88,604.67Z" transform="translate(-181 -360.31)"/><path class="cls-20" d="M608.17,639.69a21,21,0,0,1-12.81-4.1,4.07,4.07,0,0,1-1.61-3.14,2.7,2.7,0,0,1,2.9-2.66,4.63,4.63,0,0,1,3,1.13,15.17,15.17,0,0,0,9.1,3.14c4.35,0,6.68-1.61,6.68-4.11,0-2.74-2.25-3.78-7.89-5.31-9.9-2.65-13.53-6-13.53-11.83,0-6,5.56-10,14.26-10a23.78,23.78,0,0,1,10,2.26c2.17,1,3.7,2.33,3.7,3.94a2.64,2.64,0,0,1-2.9,2.82,7.3,7.3,0,0,1-3.3-1.13,15.88,15.88,0,0,0-7.65-1.85c-4,0-6.76,1-6.76,3.87s2.42,3.62,8.21,5.31c8.7,2.5,13.21,4.83,13.21,11.35C622.74,635.35,617.75,639.69,608.17,639.69Z" transform="translate(-181 -360.31)"/><path class="cls-20" d="M693.81,631.16c-4.76,5.23-12.48,8.53-21.58,8.53-16.35,0-27.3-11.91-27.3-27.77,0-16.26,11.52-27.78,27.14-27.78,7,0,13.61,2,18.19,6.85a3.53,3.53,0,0,1,1.21,2.57,3.43,3.43,0,0,1-3.54,3.55,4.32,4.32,0,0,1-2.58-1c-4.26-3.22-8.05-4.83-13.28-4.83-11.68,0-19.33,9.18-19.33,20.61S659.51,633,672.23,633c6,0,11.43-1.77,14.89-4.83v-9.9h-12.8a3.52,3.52,0,0,1-3.54-3.54,3.45,3.45,0,0,1,3.54-3.46h16.51a3.69,3.69,0,0,1,3.86,3.94v13.36A3.19,3.19,0,0,1,693.81,631.16Z" transform="translate(-181 -360.31)"/><path class="cls-20" d="M718.68,639.69c-11.19,0-18.43-8.29-18.43-18.43s7.24-18.44,18.43-18.44,18.44,8.3,18.44,18.44S729.87,639.69,718.68,639.69Zm0-30.43c-7.08,0-10.87,5.48-10.87,12s3.79,12,10.87,12,10.87-5.47,10.87-12S725.77,609.26,718.68,609.26Z" transform="translate(-181 -360.31)"/><path class="cls-20" d="M759.66,639.69c-11.19,0-18.43-8.29-18.43-18.43s7.24-18.44,18.43-18.44,18.44,8.3,18.44,18.44S770.85,639.69,759.66,639.69Zm0-30.43c-7.08,0-10.87,5.48-10.87,12s3.79,12,10.87,12,10.87-5.47,10.87-12S766.75,609.26,759.66,609.26Z" transform="translate(-181 -360.31)"/><path class="cls-20" d="M799,602.82a14.46,14.46,0,0,1,12.4,6.93v-21.5a3.79,3.79,0,0,1,7.57,0v47.34a3.5,3.5,0,0,1-3.62,3.78,3.63,3.63,0,0,1-3.71-3.86v-2.74A14.49,14.49,0,0,1,799,639.69c-9.26,0-16.82-7.72-16.82-18.43C782.21,610.15,789.77,602.82,799,602.82Zm1.53,30.6c6.52,0,10.87-5.72,10.87-12.16s-4.35-12.16-10.87-12.16-10.79,4.91-10.79,12.16S794,633.42,800.56,633.42Z" transform="translate(-181 -360.31)"/></g></g></svg>