<svg version="1.1" viewBox="0 0 512 176.51" xmlns="http://www.w3.org/2000/svg">
	<path d="m331.3 93.619-55.039-93.619h110.1z" fill="#e30613"/>
	<path d="m0.016381 104.61h20.678l0.74533 7.7099c2.3221-2.767 5.1782-5.0374 8.3979-6.6752 3.7179-1.853 7.8325-2.7678 11.985-2.6646 2.5244-0.0338 5.0423 0.2645 7.4887 0.8873 3.7588 0.95218 7.2272 2.8109 10.101 5.4138 1.1316 1.0068 2.1605 2.1234 3.0714 3.3335 2.9668-3.1025 6.5717-5.5244 10.566-7.0983 4.1146-1.6765 8.5169-2.5334 12.96-2.5226 8.995 0 15.864 2.5199 20.607 7.5597 4.968 5.6787 7.5158 13.076 7.0983 20.61v42.989h-21.568v-39.587c0.21522-3.4359-0.76588-6.8403-2.7765-9.6346-2.0831-2.3772-5.1608-3.6395-8.3132-3.4099-3.8244-0.15908-7.5152 1.4218-10.039 4.3-2.5662 3.0662-3.9003 6.9771-3.743 10.972v37.359h-20.828v-39.587c0.21601-3.4356-0.76411-6.8398-2.7738-9.6346-2.0858-2.3752-5.1632-3.6371-8.316-3.4099-3.7982-0.12766-7.4543 1.4496-9.9677 4.3-2.6133 3.0438-3.9786 6.9635-3.8222 10.972v37.359h-21.568v-69.542zm132.3 34.694c-0.0384-4.9585 0.90236-9.8757 2.7684-14.47 1.7803-4.3933 4.401-8.3968 7.7153-11.786 3.3925-3.4258 7.4459-6.1259 11.914-7.9365 4.8771-1.971 10.097-2.9529 15.357-2.8885 5.238-0.0681 10.436 0.91402 15.289 2.8885 4.437 1.8259 8.4615 4.5249 11.835 7.9365 3.3155 3.3875 5.9356 7.3915 7.7126 11.786 3.6985 9.2835 3.6985 19.631 0 28.915-1.7748 4.3955-4.3952 8.4001-7.7126 11.786-3.3818 3.4195-7.403 6.1403-11.835 8.0075-4.8392 2.026-10.043 3.037-15.289 2.9704-5.2675 0.0628-10.493-0.9478-15.357-2.9704-8.9461-3.6786-16.025-10.817-19.63-19.793-1.867-4.5937-2.8079-9.5112-2.7684-14.47m37.755 18.682c4.8422 0.11914 9.4651-2.0173 12.512-5.7824 1.445-1.7789 2.5366-3.8175 3.2161-6.0063 1.4014-4.4897 1.4014-9.3002 0-13.79-0.66869-2.1701-1.7619-4.1858-3.2161-5.9298-1.4648-1.7417-3.2783-3.1571-5.3238-4.1552-2.2434-1.0674-4.7046-1.5983-7.1884-1.5507-2.5088-0.0411-4.994 0.48921-7.2676 1.5507-2.0614 0.97212-3.8801 2.3916-5.3238 4.1552-1.4182 1.7682-2.5075 3.7766-3.2161 5.9298-1.5032 4.4736-1.5032 9.3163 0 13.79 0.71933 2.1718 1.8073 4.2036 3.2161 6.0063 1.4269 1.8101 3.2513 3.2674 5.3319 4.259 2.2727 1.0646 4.7583 1.5969 7.2676 1.5562m56.617-84.088h21.568v34.547c2.294-2.2578 5.0933-3.936 8.1658-4.8951 3.2977-1.1572 6.765-1.7569 10.26-1.7746 4.6011-0.084 9.1612 0.87752 13.337 2.812 3.7902 1.8014 7.1404 4.4105 9.8148 7.6444 2.6933 3.2988 4.7504 7.0694 6.0664 11.12 3.0135 9.4667 2.7771 19.669-0.67164 28.986-1.7499 4.5902-4.4861 8.7402-8.0156 12.157-3.704 3.4875-8.0946 6.1635-12.892 7.8573-5.579 1.96-11.462 2.9139-17.375 2.8175-5.7109 0.0208-11.409-0.52809-17.011-1.6381-4.4843-0.86665-8.9117-2.0054-13.258-3.4099v-96.223zm21.568 81.994c1.2766 0.51802 2.6072 0.89164 3.9669 1.1139 2.0101 0.28289 4.0395 0.40613 6.0691 0.36856 5.0262 0.28205 9.9076-1.7373 13.266-5.4876 3.2803-4.054 4.9588-9.1705 4.7177-14.38 2e-3 -2.1523-0.27244-4.2958-0.81902-6.3776-0.50472-1.9764-1.3351-3.8549-2.4571-5.5585-1.1075-1.6355-2.5663-3.0029-4.2699-4.0024-1.9437-1.0866-4.1462-1.6245-6.3721-1.5562-3.9546-0.32657-7.8516 1.1103-10.648 3.9259-2.4055 2.9362-3.6327 6.6626-3.4427 10.454v21.492zm69.367-51.291h21.584v69.542h-21.584zm43.903 0h21.568v40.035c-0.192 3.3624 0.84542 6.6801 2.9185 9.3343 2.2059 2.387 5.377 3.6425 8.619 3.4127 2.0195 0.0412 4.0207-0.39174 5.8425-1.264 1.6577-0.8072 3.135-1.941 4.3436-3.3335 1.2296-1.4281 2.1474-3.0973 2.6946-4.9006 0.59858-1.8653 0.90256-3.8126 0.90096-5.7715v-37.512h21.426v69.542h-20.678l-0.5979-7.4178c-2.5107 2.8268-5.6025 5.0778-9.064 6.5987-3.6827 1.7172-7.6979 2.6035-11.761 2.5964-7.1013 0.37605-14.042-2.1998-19.179-7.1174-4.6958-4.7469-7.0437-11.765-7.0437-21.055v-43.136zm88.552 55.149 34.46-37.949h-32.939v-17.2h60.227v14.68l-34.607 38.102h34.768v16.76h-61.889v-14.388z" fill="#e30613"/>
</svg>
