<svg id="Layer_1" data-name="Layer 1" xmlns="http://www.w3.org/2000/svg" viewBox="0 0 500 112.59"><defs><style>.cls-1{fill:#ea0029;}</style></defs><path class="cls-1" d="M284.15,531.93v-9.78h9.78V492.8h-9.78v-10h19.56V522h10v9.79H284.15Zm63.67,24.36V492.62H338v53.89H259.78V468.25h53.9v-9.78H250v97.82Zm0-73.46V468.07h14.77v-9.6H347.82V443.71H338v14.76H323.27v9.78H338V483h9.78Z" transform="translate(-250 -443.71)"/><path class="cls-1" d="M451.55,500a25.12,25.12,0,0,1,0,14.77,16.11,16.11,0,0,1-3.14,5.53,14.15,14.15,0,0,1-5,3.51,18.48,18.48,0,0,1-6.65,1.29,15.87,15.87,0,0,1-6.64-1.29,12.19,12.19,0,0,1-5-3.51,16,16,0,0,1-3.14-5.53A25.12,25.12,0,0,1,422,500a16.09,16.09,0,0,1,3.14-5.54,12.17,12.17,0,0,1,5-3.5,19.32,19.32,0,0,1,6.64-1.3,15.74,15.74,0,0,1,6.65,1.3,12.17,12.17,0,0,1,5,3.5,16.25,16.25,0,0,1,3.14,5.54m126.06-12.37h-8.12v20.68h8.12a14.66,14.66,0,0,0,5.17-.74,10.29,10.29,0,0,0,3.69-2.22,8.15,8.15,0,0,0,2.22-3.32,10.88,10.88,0,0,0,.73-4.24,9.74,9.74,0,0,0-2.95-7.57c-1.84-1.66-4.8-2.59-8.86-2.59M750,556.29H382V458.47H750ZM462.26,507.38a26.19,26.19,0,0,0-1.85-10.15,24.39,24.39,0,0,0-5.17-8.12,24.11,24.11,0,0,0-7.93-5.35,27.23,27.23,0,0,0-10.34-2,31.38,31.38,0,0,0-10.34,1.84,27.19,27.19,0,0,0-8.12,5.36,24.6,24.6,0,0,0-5.17,8.12,28.92,28.92,0,0,0,0,20.3,24.6,24.6,0,0,0,5.17,8.12,24.91,24.91,0,0,0,8.12,5.35,29.82,29.82,0,0,0,20.68,0,24,24,0,0,0,7.93-5.35,24.29,24.29,0,0,0,5.17-8.12,28.14,28.14,0,0,0,1.85-10m49.46-25.1H503.6V515c0,.74.18,1.48.18,2.4l-26.21-33.41c-.18-.37-.55-.55-.73-.74s-.37-.37-.56-.37c-.18-.18-.37-.18-.74-.18h-5.9v50h8.12v-33c0-.74-.19-1.48-.19-2.21l26.21,33.4a3.33,3.33,0,0,0,1.48,1.3,5.58,5.58,0,0,0,1.85.36h4.79v-50.2Zm41.71,0H521.87v50h31.56v-7.38H531.28V510.71h17.54v-7.2H531.28V489.85h22.15Zm43,15.51a18.22,18.22,0,0,0-1.11-6.46,13,13,0,0,0-3.51-5,16.25,16.25,0,0,0-5.9-3.14,28.6,28.6,0,0,0-8.31-1.1H562.85v50.2h6.83V513.66h8.12a25.65,25.65,0,0,0,7.93-1.11,15.38,15.38,0,0,0,5.91-3.32,13.07,13.07,0,0,0,3.51-5,18.58,18.58,0,0,0,1.29-6.46m37.1,29H611.76V482.28h-6.83v50.2h28.61Zm46.88-44.48h-6.83v30.46a18.68,18.68,0,0,1-.92,5.72,14.23,14.23,0,0,1-2.59,4.61A12.65,12.65,0,0,1,666,526,14.36,14.36,0,0,1,655,526a11.67,11.67,0,0,1-4.25-2.95,13.2,13.2,0,0,1-2.58-4.43,18.38,18.38,0,0,1-.93-5.72V482.28h-6.82v30.46a23.29,23.29,0,0,0,1.29,8.12,18.17,18.17,0,0,0,4.06,6.46,16.45,16.45,0,0,0,6.27,4.24A19.61,19.61,0,0,0,660.3,533a23,23,0,0,0,8.3-1.48,17.47,17.47,0,0,0,10.16-10.7,22.81,22.81,0,0,0,1.29-8.12V482.28Zm40.23,34.89a10.8,10.8,0,0,0-1.1-5.17,13.85,13.85,0,0,0-2.77-3.69,13.49,13.49,0,0,0-3.88-2.4,21,21,0,0,0-4.43-1.66c-1.47-.56-3-.93-4.43-1.48s-2.77-1.11-3.87-1.66a11.89,11.89,0,0,1-2.77-2.4,5.31,5.31,0,0,1-1.11-3.51,9.36,9.36,0,0,1,.55-3.14,4.79,4.79,0,0,1,1.85-2.4,7.88,7.88,0,0,1,2.95-1.66,13.52,13.52,0,0,1,4.06-.55,12.64,12.64,0,0,1,4.06.55c1.11.37,2,.93,3,1.29.74.56,1.47.93,2,1.3a2.42,2.42,0,0,0,1.29.55A1.4,1.4,0,0,0,717,491c.19-.19.56-.37.74-.74l1.66-3.14a17.33,17.33,0,0,0-6.09-3.88,20.13,20.13,0,0,0-7.75-1.29,17.87,17.87,0,0,0-6.65,1.11,14.5,14.5,0,0,0-4.79,3.14,11.68,11.68,0,0,0-3,4.43,13.43,13.43,0,0,0,0,10.7,11.33,11.33,0,0,0,2.77,3.69,13.49,13.49,0,0,0,3.88,2.4L702.2,509c1.47.56,2.95.93,4.43,1.48a12.34,12.34,0,0,1,3.87,1.66,11.89,11.89,0,0,1,2.77,2.4,5.85,5.85,0,0,1,1.11,3.69,8.29,8.29,0,0,1-.74,3.69,8.29,8.29,0,0,1-5.17,4.8,15.68,15.68,0,0,1-4.24.74,13.42,13.42,0,0,1-5-.74c-1.29-.55-2.4-1.1-3.5-1.66-.93-.55-1.66-1.29-2.4-1.66a2.28,2.28,0,0,0-1.66-.74,1.65,1.65,0,0,0-.93.19c-.18.18-.55.37-.74.55l-2,3.14a20,20,0,0,0,6.83,4.8,23.17,23.17,0,0,0,8.86,1.84,18.51,18.51,0,0,0,7.2-1.29,17.46,17.46,0,0,0,5.35-3.32,14.77,14.77,0,0,0,3.33-5,20,20,0,0,0,1.1-6.46" transform="translate(-250 -443.71)"/></svg>