<svg id="Layer_1" data-name="Layer 1" xmlns="http://www.w3.org/2000/svg" viewBox="0 0 638 151.67"><defs><style>.cls-1{fill:#006b33;}</style></defs><title>Oppo Logo Vector</title><g id="layer1"><path id="path1460" class="cls-1" d="M343.21,502.66V429.48H366v4.83c0,2.66,0,4.84.09,4.84s1.49-.88,3.2-1.95c20.18-12.64,49.52-16.45,75.84-9.84,23.71,6,40.9,20.09,47,38.66a51.06,51.06,0,0,1-.55,33.41c-4.87,13.05-14.89,23.55-29.35,30.74q-19,9.44-43.28,9.44A100.25,100.25,0,0,1,382,533a86.18,86.18,0,0,1-13.38-6.79L366,524.5v51.34H343.21ZM430,520.16c12.84-1.82,22.8-5.9,30.26-12.38a34.35,34.35,0,0,0,11.08-19.18,48.56,48.56,0,0,0,0-13.3,35.22,35.22,0,0,0-14.32-21.83,63,63,0,0,0-13.14-6.58,82.44,82.44,0,0,0-36.93-3c-21.43,3.14-35.92,13.77-39.81,29.21a36.26,36.26,0,0,0,.86,20.58c5.15,14.59,20.32,24.3,41.77,26.72a128.48,128.48,0,0,0,20.22-.21Zm75.66-17.5V429.48h22.82v4.83c0,2.66.05,4.84.11,4.84s1.32-.79,2.79-1.75a89.82,89.82,0,0,1,14.47-7.14c18.64-6.88,41.4-8,61.31-3,32.47,8.15,51.59,30.48,49.79,58.15-1.38,21.11-15.43,38.46-38.54,47.57a99,99,0,0,1-24.94,6,153.69,153.69,0,0,1-24.18,0c-15.08-1.8-28.32-6.28-38.64-13.07l-2.17-1.43v51.3H505.7V502.66Zm87.38,17.39c17.77-2.65,30.3-9.82,36.89-21.09a35.42,35.42,0,0,0,3.83-23.34c-2.94-16.81-17.72-28.44-40.33-31.76-14.93-2.19-31.78,0-43.24,5.6q-17.55,8.58-21.14,25.66a49.24,49.24,0,0,0,0,13.61,34,34,0,0,0,11.39,19.33c8,6.76,18.5,10.78,32.07,12.34a119.3,119.3,0,0,0,20.53-.35ZM249,539.46c-12.11-1.07-22.44-3.45-31.23-7.21-20-8.53-32.61-22.94-36-41.12a69.58,69.58,0,0,1-.48-15c2.47-21.8,18.53-39.07,43.92-47.23A108.5,108.5,0,0,1,270.21,425c27.35,3.51,48,16.19,57.13,35a50.71,50.71,0,0,1-2.43,48.27,60.67,60.67,0,0,1-17.42,17.56c-10.58,6.93-23.22,11.23-38.57,13.15-3.08.38-17.12.69-20,.44Zm16.19-19.06c11.9-1.27,21.92-4.66,29.45-10A35.94,35.94,0,0,0,307.82,493c1.28-3.89,1.53-5.71,1.53-11s-.25-7.11-1.52-11c-4.18-12.79-16.39-22.3-33.45-26.06-15-3.29-32.41-2.15-45.34,3-9.33,3.7-16.69,9.68-21,17.07-4.59,7.86-5.63,18.57-2.7,27.8,3.15,9.94,11.47,18.26,22.91,22.92a75.39,75.39,0,0,0,21.58,5,140.26,140.26,0,0,0,15.32-.2Zm470.77,19.07-3.72-.37c-12.6-1.19-25.85-5.17-35.56-10.68-13.12-7.44-22.27-18-26.44-30.6a51.32,51.32,0,0,1-1.35-26.88c2.95-13.31,11-24.61,23.63-33,16.59-11,41-15.92,64.52-13,19.56,2.46,35.68,9.62,46.9,20.81a50,50,0,0,1,14.87,30.27,65.81,65.81,0,0,1-.12,12.46c-3.08,23.31-21.56,41.13-49.86,48.07-8.59,2.11-14,2.74-24.07,2.85-4.36,0-8.33,0-8.8,0Zm15-19c15.06-1.38,27.35-6.35,35.23-14.24a32.91,32.91,0,0,0,9.66-18.34,48.35,48.35,0,0,0,0-12.08c-2.75-16.37-17.18-28.23-38.56-31.7a76.83,76.83,0,0,0-13.89-1.1c-24,0-42.57,9-49.72,24.16a33.21,33.21,0,0,0-3.12,14.73,32.28,32.28,0,0,0,5.59,19c7.1,10.68,20.57,17.49,38.41,19.44a119.77,119.77,0,0,0,16.41.13Z" transform="translate(-181 -424.16)"/></g></svg>