<?xml version="1.0" encoding="utf-8"?>
<!-- Generator: Adobe Illustrator 24.0.1, SVG Export Plug-In . SVG Version: 6.00 Build 0)  -->
<svg version="1.1" id="Слой_1" xmlns="http://www.w3.org/2000/svg" xmlns:xlink="http://www.w3.org/1999/xlink" x="0px" y="0px"
	 viewBox="0 0 784 784" style="enable-background:new 0 0 784 784;" xml:space="preserve">
<style type="text/css">
	.st0{fill-rule:evenodd;clip-rule:evenodd;fill:#3D6394;}
</style>
<g id="Слой_2_1_">
	<path class="st0" d="M152.1,377.7c22.6-6.6,39.2-27.4,39.2-52.2c0-24.6-16.5-45.5-39.2-52c15.8,11.9,25.9,30.8,25.9,52
		C178,346.8,167.9,365.9,152.1,377.7L152.1,377.7z M171.3,405.5c-3.3,0-6.6-0.3-9.7-0.5c39.4-4.8,70-38.4,70-79.2
		c0-40.7-30.6-74.3-70-79.2c3.2-0.4,6.4-0.5,9.7-0.5c44,0,79.8,35.7,79.8,79.8S215.4,405.5,171.3,405.5L171.3,405.5z M199.3,451.6
		c-5.2,0-10.4-0.3-15.5-1c62.3-7.7,110.5-60.8,110.5-125s-48.2-117.5-110.5-125c5.1-0.6,10.2-1,15.5-1
		c69.6,0,125.9,56.5,125.9,125.9C325.4,395.2,269,451.6,199.3,451.6z"/>
	<path class="st0" d="M378.4,557.2c127.8,0,231.6-103.7,231.6-231.6S506.2,93.9,378.4,93.9c-9.6,0-19.1,0.5-28.5,1.8
		c114.6,14,203.2,111.5,203.2,230c0,118.2-88.7,215.9-203.2,230C359.3,556.8,368.8,557.2,378.4,557.2L378.4,557.2z M239.8,495.1
		c-6.9,0-14-0.4-20.8-1.3c83.7-10.2,148.5-81.6,148.5-168.1s-64.8-157.9-148.5-168c6.8-0.9,13.8-1.4,20.8-1.4
		c93.5,0,169.4,75.8,169.4,169.4S333.4,495.1,239.8,495.1L239.8,495.1z M296.5,532.6c-8.6,0-17.2-0.5-25.4-1.5
		c102.4-12.5,181.6-99.8,181.6-205.5s-79.2-193-181.6-205.4c8.3-1,16.8-1.6,25.4-1.6c114.3,0,207.1,92.8,207.1,207.1
		S410.8,532.6,296.5,532.6z"/>
	<path class="st0" d="M720.7,625.4l-0.9,1.4l-26.4,42.6L667,626.8l-0.9-1.4H645V690h16.2v-42.4l26.7,41.2l0.9,1.4h9.5l1-1.4
		l26.8-41.3V690h16v-64.5L720.7,625.4L720.7,625.4z"/>
	<path class="st0" d="M113.7,625.4v43.3l0,0c0,4.4-0.4,8-1.4,10.7c-0.1,0.5-0.3,1-0.5,1.4c-1,2.3-2.5,4.2-4.3,5.1
		c-2.3,1.4-6.1,2.5-11.1,3.2c-4.8,0.5-11,1-18.7,1h-0.1c-3.8,0-7.1,0-10.2-0.1c-3-0.1-5.8-0.3-8.1-0.5c-1.5-0.1-3-0.4-4.3-0.5
		c-2.8-0.5-4.8-1.3-6.3-2c-2.5-1.4-4.2-3.7-5.2-6.9c-1-2.9-1.5-6.4-1.5-10.9v-43.3h16.2v43.3c0,1.6,0.1,2.9,0.5,3.7
		c0.3,0.5,0.5,0.9,1,1c0.9,0.3,2.8,0.5,5.4,0.9c3.2,0.3,7.3,0.3,12.5,0.3H78c5.1,0,9.3-0.1,12.5-0.3c0.6,0,1.1-0.1,1.4-0.1
		c2-0.1,3.4-0.4,4.2-0.6c0.3-0.1,0.6-0.5,0.9-1c0.4-0.9,0.5-2,0.5-3.7v-43.3h16.3L113.7,625.4L113.7,625.4z"/>
	<polygon class="st0" points="187.4,639.4 145.7,674.7 188.5,674.7 188.5,689.8 120.3,689.8 120.3,676.7 121.4,675.8 163.6,640.8 
		122.3,640.8 122.3,625.4 188.5,625.4 188.5,638.8 	"/>
	<polygon class="st0" points="263,625.4 263,640.8 237.5,640.8 237.5,689.8 221.4,689.8 221.4,640.8 195.8,640.8 195.8,625.4 	"/>
	<polygon class="st0" points="286.7,640.8 286.7,649.7 331,649.7 331,664.8 286.7,664.8 286.7,674.7 332.5,674.7 332.5,689.8 
		270.5,689.8 270.5,625.4 332.5,625.4 332.5,640.8 	"/>
	<polygon class="st0" points="401,674.7 401,689.8 341.1,689.8 341.1,625.4 357.4,625.4 357.4,674.7 	"/>
	<polygon class="st0" points="424.3,640.8 424.3,649.7 468.7,649.7 468.7,664.8 424.3,664.8 424.3,674.7 470.3,674.7 470.3,689.8 
		408.2,689.8 408.2,625.4 470.3,625.4 470.3,640.8 	"/>
	<path class="st0" d="M534,652.8v-2.9c0-4.9-0.5-7.7-1.8-8.3l0,0c-0.9-0.4-2.7-0.6-5.3-1c-3-0.3-7.1-0.4-12.4-0.4
		c-10.4,0-16.4,0.6-17.8,1.9l0,0c-0.4,0.4-1,1.8-1.3,3.9c-0.4,2.8-0.6,6.6-0.6,11.4c0,9.1,0.6,14.1,2,15.4l0,0l0,0
		c0.1,0.1,0.3,0.1,0.4,0.3c0.3,0.1,0.6,0.3,1.3,0.4c3,0.9,8.3,1.3,16.2,1.3c5.2,0,9.3-0.1,12.3-0.3c2.7-0.1,4.3-0.4,4.9-0.6
		c0.1,0,0.3-0.1,0.4-0.3c0.1-0.1,0.3-0.3,0.4-0.5c1.1-1.5,1.5-4.2,1.5-8v-2.9h16.2v3c0,5.1-0.5,9.3-1.6,12.6
		c-0.1,0.5-0.4,1.1-0.5,1.6c-1.3,2.9-2.9,4.9-5.1,6.3l0,0l0,0c-0.6,0.4-1.5,0.9-2.5,1.3c-0.9,0.4-1.8,0.6-2.9,1
		c-5.1,1.4-12.9,1.9-23.1,1.9c-7.3,0-13.3-0.4-18.1-1.4c-5.1-1-8.7-2.5-11.1-4.5c-2.5-2-4.3-5.4-5.3-10.1c-1-4.3-1.5-9.7-1.5-16.3
		s0.5-12,1.5-16.3c1.1-4.7,2.9-8.1,5.2-10.1c2.3-2,6.1-3.5,11.1-4.5c4.7-0.9,10.7-1.4,18.1-1.4l0,0l0,0l0,0c7.1,0,13,0.3,17.6,1
		c0.9,0.1,1.6,0.3,2.1,0.3c3.8,0.6,6.7,1.5,8.6,2.8l0,0l0,0l0,0c1.3,0.9,2.5,1.9,3.4,3.3s1.6,2.9,2.1,4.7c1.1,3.3,1.6,7.6,1.6,12.8
		v2.9L534,652.8L534,652.8z"/>
	<path class="st0" d="M635.5,646.3c-0.3-3.2-0.6-5.6-1.1-7.5c-1.3-3.9-3.5-6.9-6.9-9.1c-0.6-0.4-1.4-0.6-2-1.1
		c-0.6-0.3-1.5-0.6-2.1-0.9l0,0l0,0c-2.7-0.9-6.2-1.5-10.6-1.9c-4.3-0.4-9.5-0.5-15.5-0.5l0,0c-5.9,0-11.1,0.1-15.5,0.5
		s-8,1.1-10.7,1.9c-4.3,1.4-7.5,3.7-9.5,6.8c-0.4,0.6-0.9,1.3-1.1,1.9c-0.3,0.6-0.5,1.4-0.9,2.1l0,0c-0.5,1.6-0.9,3.9-1.1,7.3
		c-0.3,3.2-0.3,6.9-0.3,11.6c0,6.6,0.3,11.6,0.6,15c0.1,0.9,0.1,1.4,0.3,1.9c0.1,0.5,0.3,1.3,0.4,1.6l0,0c1.3,3.8,3.5,6.8,6.9,9
		c0.6,0.4,1.4,0.9,2,1.1s1.5,0.6,2.3,0.9l0,0c1.8,0.5,3.9,1.1,6.6,1.4c1.1,0.1,2.5,0.3,3.9,0.4c4.3,0.4,9.5,0.5,15.5,0.5h0.1
		c8.6,0,15.7-0.4,20.7-1.3c1.1-0.1,2-0.4,2.9-0.5c1-0.1,1.8-0.4,2.5-0.6l0,0c2.9-1,5.3-2.3,7.3-4.2c1.9-1.9,3.3-4.2,4.2-6.8l0,0
		c0.5-1.6,0.9-3.9,1.1-7.3c0.3-3.2,0.3-6.9,0.3-11.5C635.9,653.2,635.8,649.4,635.5,646.3z M619,669.1c-0.4,2.1-0.9,3.5-1.4,3.9
		c-0.5,0.5-2.5,1-5.6,1.4c-3.5,0.4-8.6,0.6-14.9,0.6c-9.1,0-15.2-0.4-18.8-1.3c-0.5-0.1-1.1-0.3-1.4-0.4c-0.1-0.1-0.4-0.1-0.4-0.3
		l0,0l0,0c-0.5-0.4-1-1.8-1.4-3.9c-0.5-2.8-0.6-6.4-0.6-11.4c0-6.8,0.4-11.6,1.5-14.1c0.1-0.4,0.3-0.6,0.4-1l0,0
		c0-0.1,0.1-0.3,0.1-0.3c0.5-0.5,2.5-1,5.6-1.3c1.8-0.3,3.9-0.4,6.6-0.4c2.5-0.1,5.3-0.1,8.5-0.1c6.3,0,11.4,0.3,14.9,0.6
		c1.6,0.1,2.9,0.4,3.8,0.5c1,0.3,1.5,0.4,1.9,0.6c0.5,0.4,1,1.8,1.4,3.9c0.5,2.8,0.6,6.6,0.6,11.4
		C619.7,662.4,619.5,666.5,619,669.1z"/>
</g>
</svg>
