<svg id="Layer_1" data-name="Layer 1" xmlns="http://www.w3.org/2000/svg" viewBox="0 0 638 177.19"><defs><style>.cls-1{fill:#0a51a1;fill-rule:evenodd;}</style></defs><title>Vivo Logo Vector</title><path class="cls-1" d="M682,482.19c5.86-1.12,46.38-.49,55.69-.49,8.34,0,19.41-.76,27.07,1.22,39.53,10.15,39.25,72.16-3.61,79.49-6.32,1.11-46.14.48-55.82.48-8.06,0-19.9.76-27.06-1.16-23.19-6.29-34.15-31.4-26.84-53.66,4.27-13.06,15.16-23,30.57-25.88ZM818.57,530c2.8-26.07-8.43-46.81-22.5-58.42a63.48,63.48,0,0,0-27.3-13.5c-10.1-2.36-27.72-1.37-39.22-1.37q-20.37,0-40.81,0c-13.17,0-23,3-32.54,8.44-40.08,23-42.32,79.56-9.26,107.84,20.52,17.55,40.4,15,66.44,15,13.62,0,27.21,0,40.82,0,32.86,0,60.63-23.21,64.37-58ZM432.08,474.56c.72,4.26,7.53,13.25,10,16.82l32.29,47.43c6.3,9.31,15,22.68,21.49,31.63s17.85,18.88,35.07,18.09c16.18-.73,25.18-10.95,32.12-21s14.09-20.91,21.49-31.64l37.74-55.45c7.59-11.29-2-23.64-13-21.48-7,1.35-10,7.56-13.55,13l-21.48,31.66c-7.13,10.32-14.28,21.26-21.5,31.62-3.68,5.29-7,10.4-10.73,15.83-3,4.37-7.82,12.35-15.92,10.39-6.05-1.47-10.21-9-13.2-13.44-3.6-5.38-7-10.3-10.73-15.82-7.15-10.51-14-20.51-21.5-31.65-7.24-10.8-14-20.68-21.49-31.61-3.38-4.89-7.11-11.68-16.27-10a13.42,13.42,0,0,0-10.8,15.63Zm-250.94-.37c.64,4.66,7.48,13.31,9.89,16.88l43,63.24c10.65,16,21,35.14,45.49,34.26,22.56-.81,31.87-19.73,43.39-36.76l32.21-47.43c3.43-5.16,7.09-10.46,10.79-15.79,4.07-5.91,9.13-11.68,8.2-18.23a13.45,13.45,0,0,0-15.22-11.5c-7,1-10,7-13.8,12.75-7.33,11-14,20.63-21.45,31.65-7.21,10.66-14.14,21.11-21.51,31.63-3.77,5.41-7,10.4-10.78,15.83-3.12,4.54-7.47,12.34-15.63,10.85-6.46-1.16-10.12-8.5-13.56-13.42C244.37,522.83,225.9,495,208.4,469.08c-3.56-5.28-7.22-11.56-16.21-10.21a13.48,13.48,0,0,0-11.05,15.32ZM400.7,459c-13.21,2.76-11.09,14-11.09,27.86v78.56c0,6.55-.92,12.55,2.31,17.33,6.2,9.22,20.7,7,23.91-3.48,1.25-4.1.59-51.67.59-58.14V481.88c0-6.64.9-12.4-2.25-17.24A13.1,13.1,0,0,0,400.7,459Zm.59-47.21c-2.28.91-3.71,2.91-5.27,4.46l-9.67,9.6c-6.28,6.35-1.12,8.84,6.74,16.74,1.7,1.71,3.11,3.08,4.83,4.79,6.29,6.31,8.57,1.68,16.86-6.57,11.43-11.39,11.09-9-6.72-26.68-1.5-1.49-3.5-3.65-6.77-2.34Z" transform="translate(-181 -411.4)"/></svg>